<?xml version="1.0" encoding="UTF-8" standalone="no"?>
<!DOCTYPE svg PUBLIC "-//W3C//DTD SVG 1.1//EN"
 "http://www.w3.org/Graphics/SVG/1.1/DTD/svg11.dtd">
<!-- Generated by graphviz version 2.38.0 (20140413.2041)
 -->
<!-- Title: controllers_diagram Pages: 1 -->
<svg width="634pt" height="615pt"
 viewBox="0.00 0.00 633.50 615.00" xmlns="http://www.w3.org/2000/svg" xmlns:xlink="http://www.w3.org/1999/xlink">
<g id="graph0" class="graph" transform="scale(1 1) rotate(0) translate(259.5 355.5)">
<title>controllers_diagram</title>
<polygon fill="none" stroke="none" points="-259.5,259.5 -259.5,-355.5 374,-355.5 374,259.5 -259.5,259.5"/>
<!-- _diagram_info -->
<g id="node1" class="node"><title>_diagram_info</title>
<text text-anchor="start" x="-136" y="-207.6" font-family="Times,serif" font-size="13.00">Controllers diagram</text>
<text text-anchor="start" x="-136" y="-193.6" font-family="Times,serif" font-size="13.00">Date: Sep 27 2017 &#45; 22:17</text>
<text text-anchor="start" x="-136" y="-179.6" font-family="Times,serif" font-size="13.00">Migration version: 20170928011417</text>
<text text-anchor="start" x="-136" y="-165.6" font-family="Times,serif" font-size="13.00">Generated by RailRoady 1.5.3</text>
<text text-anchor="start" x="-136" y="-151.6" font-family="Times,serif" font-size="13.00">http://railroady.prestonlee.com</text>
</g>
<!-- PagesController -->
<g id="node2" class="node"><title>PagesController</title>
<path fill="none" stroke="black" d="M-212,-1C-212,-1 -132,-1 -132,-1 -126,-1 -120,-7 -120,-13 -120,-13 -120,-97 -120,-97 -120,-103 -126,-109 -132,-109 -132,-109 -212,-109 -212,-109 -218,-109 -224,-103 -224,-97 -224,-97 -224,-13 -224,-13 -224,-7 -218,-1 -212,-1"/>
<text text-anchor="middle" x="-172" y="-93.8" font-family="Times,serif" font-size="14.00">PagesController</text>
<polyline fill="none" stroke="black" points="-224,-86 -120,-86 "/>
<text text-anchor="start" x="-216" y="-70.8" font-family="Times,serif" font-size="14.00">account</text>
<text text-anchor="start" x="-216" y="-55.8" font-family="Times,serif" font-size="14.00">index</text>
<polyline fill="none" stroke="black" points="-224,-48 -120,-48 "/>
<polyline fill="none" stroke="black" points="-224,-24 -120,-24 "/>
<text text-anchor="start" x="-216" y="-8.8" font-family="Times,serif" font-size="14.00">_layout</text>
</g>
<!-- PublicationsController -->
<g id="node3" class="node"><title>PublicationsController</title>
<path fill="none" stroke="black" d="M-67.5,127C-67.5,127 47.5,127 47.5,127 53.5,127 59.5,121 59.5,115 59.5,115 59.5,-89 59.5,-89 59.5,-95 53.5,-101 47.5,-101 47.5,-101 -67.5,-101 -67.5,-101 -73.5,-101 -79.5,-95 -79.5,-89 -79.5,-89 -79.5,115 -79.5,115 -79.5,121 -73.5,127 -67.5,127"/>
<text text-anchor="middle" x="-10" y="-85.8" font-family="Times,serif" font-size="14.00">PublicationsController</text>
<polyline fill="none" stroke="black" points="-79.5,-78 59.5,-78 "/>
<text text-anchor="start" x="-71.5" y="-62.8" font-family="Times,serif" font-size="14.00">create</text>
<text text-anchor="start" x="-71.5" y="-47.8" font-family="Times,serif" font-size="14.00">destroy</text>
<text text-anchor="start" x="-71.5" y="-32.8" font-family="Times,serif" font-size="14.00">edit</text>
<text text-anchor="start" x="-71.5" y="-17.8" font-family="Times,serif" font-size="14.00">index</text>
<text text-anchor="start" x="-71.5" y="-2.8" font-family="Times,serif" font-size="14.00">new</text>
<text text-anchor="start" x="-71.5" y="12.2" font-family="Times,serif" font-size="14.00">show</text>
<text text-anchor="start" x="-71.5" y="27.2" font-family="Times,serif" font-size="14.00">update</text>
<polyline fill="none" stroke="black" points="-79.5,35 59.5,35 "/>
<polyline fill="none" stroke="black" points="-79.5,59 59.5,59 "/>
<text text-anchor="start" x="-71.5" y="74.2" font-family="Times,serif" font-size="14.00">_layout</text>
<text text-anchor="start" x="-71.5" y="89.2" font-family="Times,serif" font-size="14.00">publication_params</text>
<text text-anchor="start" x="-71.5" y="104.2" font-family="Times,serif" font-size="14.00">set_all</text>
<text text-anchor="start" x="-71.5" y="119.2" font-family="Times,serif" font-size="14.00">set_publication</text>
</g>
<!-- ApplicationController -->
<g id="node4" class="node"><title>ApplicationController</title>
<path fill="none" stroke="black" d="M188,-176.5C188,-176.5 358,-176.5 358,-176.5 364,-176.5 370,-182.5 370,-188.5 370,-188.5 370,-257.5 370,-257.5 370,-263.5 364,-269.5 358,-269.5 358,-269.5 188,-269.5 188,-269.5 182,-269.5 176,-263.5 176,-257.5 176,-257.5 176,-188.5 176,-188.5 176,-182.5 182,-176.5 188,-176.5"/>
<text text-anchor="middle" x="273" y="-254.3" font-family="Times,serif" font-size="14.00">ApplicationController</text>
<polyline fill="none" stroke="black" points="176,-246.5 370,-246.5 "/>
<polyline fill="none" stroke="black" points="176,-222.5 370,-222.5 "/>
<text text-anchor="start" x="184" y="-207.3" font-family="Times,serif" font-size="14.00">configure_permitted_parameters</text>
<polyline fill="none" stroke="black" points="176,-199.5 370,-199.5 "/>
<text text-anchor="start" x="184" y="-184.3" font-family="Times,serif" font-size="14.00">_layout</text>
</g>
<!-- Users::PasswordsController -->
<g id="node5" class="node"><title>Users::PasswordsController</title>
<path fill="none" stroke="black" d="M-4.5,-257C-4.5,-257 138.5,-257 138.5,-257 144.5,-257 150.5,-263 150.5,-269 150.5,-269 150.5,-339 150.5,-339 150.5,-345 144.5,-351 138.5,-351 138.5,-351 -4.5,-351 -4.5,-351 -10.5,-351 -16.5,-345 -16.5,-339 -16.5,-339 -16.5,-269 -16.5,-269 -16.5,-263 -10.5,-257 -4.5,-257"/>
<text text-anchor="middle" x="67" y="-335.8" font-family="Times,serif" font-size="14.00">Users::PasswordsController</text>
<polyline fill="none" stroke="black" points="-16.5,-328 150.5,-328 "/>
<polyline fill="none" stroke="black" points="-16.5,-304 150.5,-304 "/>
<polyline fill="none" stroke="black" points="-16.5,-280 150.5,-280 "/>
<text text-anchor="start" x="-8.5" y="-264.8" font-family="Times,serif" font-size="14.00">_layout</text>
</g>
<!-- Users::ConfirmationsController -->
<g id="node6" class="node"><title>Users::ConfirmationsController</title>
<path fill="none" stroke="black" d="M108.5,223C108.5,223 273.5,223 273.5,223 279.5,223 285.5,217 285.5,211 285.5,211 285.5,141 285.5,141 285.5,135 279.5,129 273.5,129 273.5,129 108.5,129 108.5,129 102.5,129 96.5,135 96.5,141 96.5,141 96.5,211 96.5,211 96.5,217 102.5,223 108.5,223"/>
<text text-anchor="middle" x="191" y="144.2" font-family="Times,serif" font-size="14.00">Users::ConfirmationsController</text>
<polyline fill="none" stroke="black" points="96.5,152 285.5,152 "/>
<polyline fill="none" stroke="black" points="96.5,176 285.5,176 "/>
<polyline fill="none" stroke="black" points="96.5,200 285.5,200 "/>
<text text-anchor="start" x="104.5" y="215.2" font-family="Times,serif" font-size="14.00">_layout</text>
</g>
<!-- Users::SessionsController -->
<g id="node7" class="node"><title>Users::SessionsController</title>
<path fill="none" stroke="black" d="M-195.5,-257C-195.5,-257 -62.5,-257 -62.5,-257 -56.5,-257 -50.5,-263 -50.5,-269 -50.5,-269 -50.5,-339 -50.5,-339 -50.5,-345 -56.5,-351 -62.5,-351 -62.5,-351 -195.5,-351 -195.5,-351 -201.5,-351 -207.5,-345 -207.5,-339 -207.5,-339 -207.5,-269 -207.5,-269 -207.5,-263 -201.5,-257 -195.5,-257"/>
<text text-anchor="middle" x="-129" y="-335.8" font-family="Times,serif" font-size="14.00">Users::SessionsController</text>
<polyline fill="none" stroke="black" points="-207.5,-328 -50.5,-328 "/>
<polyline fill="none" stroke="black" points="-207.5,-304 -50.5,-304 "/>
<polyline fill="none" stroke="black" points="-207.5,-280 -50.5,-280 "/>
<text text-anchor="start" x="-199.5" y="-264.8" font-family="Times,serif" font-size="14.00">_layout</text>
</g>
<!-- Users::OmniauthCallbacksController -->
<g id="node8" class="node"><title>Users::OmniauthCallbacksController</title>
<path fill="none" stroke="black" d="M108,95C108,95 302,95 302,95 308,95 314,89 314,83 314,83 314,13 314,13 314,7 308,1 302,1 302,1 108,1 108,1 102,1 96,7 96,13 96,13 96,83 96,83 96,89 102,95 108,95"/>
<text text-anchor="middle" x="205" y="16.2" font-family="Times,serif" font-size="14.00">Users::OmniauthCallbacksController</text>
<polyline fill="none" stroke="black" points="96,24 314,24 "/>
<polyline fill="none" stroke="black" points="96,48 314,48 "/>
<polyline fill="none" stroke="black" points="96,72 314,72 "/>
<text text-anchor="start" x="104" y="87.2" font-family="Times,serif" font-size="14.00">_layout</text>
</g>
<!-- Users::RegistrationsController -->
<g id="node9" class="node"><title>Users::RegistrationsController</title>
<path fill="none" stroke="black" d="M108,-33C108,-33 290,-33 290,-33 296,-33 302,-39 302,-45 302,-45 302,-129 302,-129 302,-135 296,-141 290,-141 290,-141 108,-141 108,-141 102,-141 96,-135 96,-129 96,-129 96,-45 96,-45 96,-39 102,-33 108,-33"/>
<text text-anchor="middle" x="199" y="-125.8" font-family="Times,serif" font-size="14.00">Users::RegistrationsController</text>
<polyline fill="none" stroke="black" points="96,-118 302,-118 "/>
<polyline fill="none" stroke="black" points="96,-94 302,-94 "/>
<text text-anchor="start" x="104" y="-78.8" font-family="Times,serif" font-size="14.00">configure_account_update_params</text>
<text text-anchor="start" x="104" y="-63.8" font-family="Times,serif" font-size="14.00">configure_sign_up_params</text>
<polyline fill="none" stroke="black" points="96,-56 302,-56 "/>
<text text-anchor="start" x="104" y="-40.8" font-family="Times,serif" font-size="14.00">_layout</text>
</g>
<!-- Users::UnlocksController -->
<g id="node10" class="node"><title>Users::UnlocksController</title>
<path fill="none" stroke="black" d="M-243.5,255C-243.5,255 -112.5,255 -112.5,255 -106.5,255 -100.5,249 -100.5,243 -100.5,243 -100.5,173 -100.5,173 -100.5,167 -106.5,161 -112.5,161 -112.5,161 -243.5,161 -243.5,161 -249.5,161 -255.5,167 -255.5,173 -255.5,173 -255.5,243 -255.5,243 -255.5,249 -249.5,255 -243.5,255"/>
<text text-anchor="middle" x="-178" y="176.2" font-family="Times,serif" font-size="14.00">Users::UnlocksController</text>
<polyline fill="none" stroke="black" points="-255.5,184 -100.5,184 "/>
<polyline fill="none" stroke="black" points="-255.5,208 -100.5,208 "/>
<polyline fill="none" stroke="black" points="-255.5,232 -100.5,232 "/>
<text text-anchor="start" x="-247.5" y="247.2" font-family="Times,serif" font-size="14.00">_layout</text>
</g>
</g>
</svg>
