<?xml version="1.0" encoding="UTF-8" standalone="no"?>
<!DOCTYPE svg PUBLIC "-//W3C//DTD SVG 1.1//EN"
 "http://www.w3.org/Graphics/SVG/1.1/DTD/svg11.dtd">
<!-- Generated by graphviz version 2.38.0 (20140413.2041)
 -->
<!-- Title: controllers_diagram Pages: 1 -->
<svg width="613pt" height="599pt"
 viewBox="0.00 0.00 613.00 599.00" xmlns="http://www.w3.org/2000/svg" xmlns:xlink="http://www.w3.org/1999/xlink">
<g id="graph0" class="graph" transform="scale(1 1) rotate(0) translate(243.5 355.5)">
<title>controllers_diagram</title>
<polygon fill="none" stroke="none" points="-243.5,243.5 -243.5,-355.5 369.5,-355.5 369.5,243.5 -243.5,243.5"/>
<!-- _diagram_info -->
<g id="node1" class="node"><title>_diagram_info</title>
<text text-anchor="start" x="-136" y="-207.6" font-family="Times,serif" font-size="13.00">Controllers diagram</text>
<text text-anchor="start" x="-136" y="-193.6" font-family="Times,serif" font-size="13.00">Date: Aug 27 2017 &#45; 23:56</text>
<text text-anchor="start" x="-136" y="-179.6" font-family="Times,serif" font-size="13.00">Migration version: 20170828025343</text>
<text text-anchor="start" x="-136" y="-165.6" font-family="Times,serif" font-size="13.00">Generated by RailRoady 1.5.3</text>
<text text-anchor="start" x="-136" y="-151.6" font-family="Times,serif" font-size="13.00">http://railroady.prestonlee.com</text>
</g>
<!-- PagesController -->
<g id="node2" class="node"><title>PagesController</title>
<path fill="none" stroke="black" d="M-212,-16.5C-212,-16.5 -132,-16.5 -132,-16.5 -126,-16.5 -120,-22.5 -120,-28.5 -120,-28.5 -120,-97.5 -120,-97.5 -120,-103.5 -126,-109.5 -132,-109.5 -132,-109.5 -212,-109.5 -212,-109.5 -218,-109.5 -224,-103.5 -224,-97.5 -224,-97.5 -224,-28.5 -224,-28.5 -224,-22.5 -218,-16.5 -212,-16.5"/>
<text text-anchor="middle" x="-172" y="-94.3" font-family="Times,serif" font-size="14.00">PagesController</text>
<polyline fill="none" stroke="black" points="-224,-86.5 -120,-86.5 "/>
<text text-anchor="start" x="-216" y="-71.3" font-family="Times,serif" font-size="14.00">index</text>
<polyline fill="none" stroke="black" points="-224,-63.5 -120,-63.5 "/>
<polyline fill="none" stroke="black" points="-224,-39.5 -120,-39.5 "/>
<text text-anchor="start" x="-216" y="-24.3" font-family="Times,serif" font-size="14.00">_layout</text>
</g>
<!-- PublicationsController -->
<g id="node3" class="node"><title>PublicationsController</title>
<path fill="none" stroke="black" d="M-67.5,111.5C-67.5,111.5 47.5,111.5 47.5,111.5 53.5,111.5 59.5,105.5 59.5,99.5 59.5,99.5 59.5,-89.5 59.5,-89.5 59.5,-95.5 53.5,-101.5 47.5,-101.5 47.5,-101.5 -67.5,-101.5 -67.5,-101.5 -73.5,-101.5 -79.5,-95.5 -79.5,-89.5 -79.5,-89.5 -79.5,99.5 -79.5,99.5 -79.5,105.5 -73.5,111.5 -67.5,111.5"/>
<text text-anchor="middle" x="-10" y="-86.3" font-family="Times,serif" font-size="14.00">PublicationsController</text>
<polyline fill="none" stroke="black" points="-79.5,-78.5 59.5,-78.5 "/>
<text text-anchor="start" x="-71.5" y="-63.3" font-family="Times,serif" font-size="14.00">create</text>
<text text-anchor="start" x="-71.5" y="-48.3" font-family="Times,serif" font-size="14.00">destroy</text>
<text text-anchor="start" x="-71.5" y="-33.3" font-family="Times,serif" font-size="14.00">edit</text>
<text text-anchor="start" x="-71.5" y="-18.3" font-family="Times,serif" font-size="14.00">index</text>
<text text-anchor="start" x="-71.5" y="-3.3" font-family="Times,serif" font-size="14.00">new</text>
<text text-anchor="start" x="-71.5" y="11.7" font-family="Times,serif" font-size="14.00">show</text>
<text text-anchor="start" x="-71.5" y="26.7" font-family="Times,serif" font-size="14.00">update</text>
<polyline fill="none" stroke="black" points="-79.5,34.5 59.5,34.5 "/>
<polyline fill="none" stroke="black" points="-79.5,58.5 59.5,58.5 "/>
<text text-anchor="start" x="-71.5" y="73.7" font-family="Times,serif" font-size="14.00">_layout</text>
<text text-anchor="start" x="-71.5" y="88.7" font-family="Times,serif" font-size="14.00">publication_params</text>
<text text-anchor="start" x="-71.5" y="103.7" font-family="Times,serif" font-size="14.00">set_publication</text>
</g>
<!-- ApplicationController -->
<g id="node4" class="node"><title>ApplicationController</title>
<path fill="none" stroke="black" d="M-180,-257C-180,-257 -68,-257 -68,-257 -62,-257 -56,-263 -56,-269 -56,-269 -56,-339 -56,-339 -56,-345 -62,-351 -68,-351 -68,-351 -180,-351 -180,-351 -186,-351 -192,-345 -192,-339 -192,-339 -192,-269 -192,-269 -192,-263 -186,-257 -180,-257"/>
<text text-anchor="middle" x="-124" y="-335.8" font-family="Times,serif" font-size="14.00">ApplicationController</text>
<polyline fill="none" stroke="black" points="-192,-328 -56,-328 "/>
<polyline fill="none" stroke="black" points="-192,-304 -56,-304 "/>
<polyline fill="none" stroke="black" points="-192,-280 -56,-280 "/>
<text text-anchor="start" x="-184" y="-264.8" font-family="Times,serif" font-size="14.00">_layout</text>
</g>
<!-- Users::PasswordsController -->
<g id="node5" class="node"><title>Users::PasswordsController</title>
<path fill="none" stroke="black" d="M107.5,223C107.5,223 250.5,223 250.5,223 256.5,223 262.5,217 262.5,211 262.5,211 262.5,141 262.5,141 262.5,135 256.5,129 250.5,129 250.5,129 107.5,129 107.5,129 101.5,129 95.5,135 95.5,141 95.5,141 95.5,211 95.5,211 95.5,217 101.5,223 107.5,223"/>
<text text-anchor="middle" x="179" y="144.2" font-family="Times,serif" font-size="14.00">Users::PasswordsController</text>
<polyline fill="none" stroke="black" points="95.5,152 262.5,152 "/>
<polyline fill="none" stroke="black" points="95.5,176 262.5,176 "/>
<polyline fill="none" stroke="black" points="95.5,200 262.5,200 "/>
<text text-anchor="start" x="103.5" y="215.2" font-family="Times,serif" font-size="14.00">_layout</text>
</g>
<!-- Users::ConfirmationsController -->
<g id="node6" class="node"><title>Users::ConfirmationsController</title>
<path fill="none" stroke="black" d="M188.5,-177C188.5,-177 353.5,-177 353.5,-177 359.5,-177 365.5,-183 365.5,-189 365.5,-189 365.5,-259 365.5,-259 365.5,-265 359.5,-271 353.5,-271 353.5,-271 188.5,-271 188.5,-271 182.5,-271 176.5,-265 176.5,-259 176.5,-259 176.5,-189 176.5,-189 176.5,-183 182.5,-177 188.5,-177"/>
<text text-anchor="middle" x="271" y="-255.8" font-family="Times,serif" font-size="14.00">Users::ConfirmationsController</text>
<polyline fill="none" stroke="black" points="176.5,-248 365.5,-248 "/>
<polyline fill="none" stroke="black" points="176.5,-224 365.5,-224 "/>
<polyline fill="none" stroke="black" points="176.5,-200 365.5,-200 "/>
<text text-anchor="start" x="184.5" y="-184.8" font-family="Times,serif" font-size="14.00">_layout</text>
</g>
<!-- Users::SessionsController -->
<g id="node7" class="node"><title>Users::SessionsController</title>
<path fill="none" stroke="black" d="M-227.5,239C-227.5,239 -94.5,239 -94.5,239 -88.5,239 -82.5,233 -82.5,227 -82.5,227 -82.5,157 -82.5,157 -82.5,151 -88.5,145 -94.5,145 -94.5,145 -227.5,145 -227.5,145 -233.5,145 -239.5,151 -239.5,157 -239.5,157 -239.5,227 -239.5,227 -239.5,233 -233.5,239 -227.5,239"/>
<text text-anchor="middle" x="-161" y="160.2" font-family="Times,serif" font-size="14.00">Users::SessionsController</text>
<polyline fill="none" stroke="black" points="-239.5,168 -82.5,168 "/>
<polyline fill="none" stroke="black" points="-239.5,192 -82.5,192 "/>
<polyline fill="none" stroke="black" points="-239.5,216 -82.5,216 "/>
<text text-anchor="start" x="-231.5" y="231.2" font-family="Times,serif" font-size="14.00">_layout</text>
</g>
<!-- Users::OmniauthCallbacksController -->
<g id="node8" class="node"><title>Users::OmniauthCallbacksController</title>
<path fill="none" stroke="black" d="M108,95C108,95 302,95 302,95 308,95 314,89 314,83 314,83 314,13 314,13 314,7 308,1 302,1 302,1 108,1 108,1 102,1 96,7 96,13 96,13 96,83 96,83 96,89 102,95 108,95"/>
<text text-anchor="middle" x="205" y="16.2" font-family="Times,serif" font-size="14.00">Users::OmniauthCallbacksController</text>
<polyline fill="none" stroke="black" points="96,24 314,24 "/>
<polyline fill="none" stroke="black" points="96,48 314,48 "/>
<polyline fill="none" stroke="black" points="96,72 314,72 "/>
<text text-anchor="start" x="104" y="87.2" font-family="Times,serif" font-size="14.00">_layout</text>
</g>
<!-- Users::RegistrationsController -->
<g id="node9" class="node"><title>Users::RegistrationsController</title>
<path fill="none" stroke="black" d="M108,-33C108,-33 290,-33 290,-33 296,-33 302,-39 302,-45 302,-45 302,-129 302,-129 302,-135 296,-141 290,-141 290,-141 108,-141 108,-141 102,-141 96,-135 96,-129 96,-129 96,-45 96,-45 96,-39 102,-33 108,-33"/>
<text text-anchor="middle" x="199" y="-125.8" font-family="Times,serif" font-size="14.00">Users::RegistrationsController</text>
<polyline fill="none" stroke="black" points="96,-118 302,-118 "/>
<polyline fill="none" stroke="black" points="96,-94 302,-94 "/>
<text text-anchor="start" x="104" y="-78.8" font-family="Times,serif" font-size="14.00">configure_account_update_params</text>
<text text-anchor="start" x="104" y="-63.8" font-family="Times,serif" font-size="14.00">configure_sign_up_params</text>
<polyline fill="none" stroke="black" points="96,-56 302,-56 "/>
<text text-anchor="start" x="104" y="-40.8" font-family="Times,serif" font-size="14.00">_layout</text>
</g>
<!-- Users::UnlocksController -->
<g id="node10" class="node"><title>Users::UnlocksController</title>
<path fill="none" stroke="black" d="M-3.5,-257C-3.5,-257 127.5,-257 127.5,-257 133.5,-257 139.5,-263 139.5,-269 139.5,-269 139.5,-339 139.5,-339 139.5,-345 133.5,-351 127.5,-351 127.5,-351 -3.5,-351 -3.5,-351 -9.5,-351 -15.5,-345 -15.5,-339 -15.5,-339 -15.5,-269 -15.5,-269 -15.5,-263 -9.5,-257 -3.5,-257"/>
<text text-anchor="middle" x="62" y="-335.8" font-family="Times,serif" font-size="14.00">Users::UnlocksController</text>
<polyline fill="none" stroke="black" points="-15.5,-328 139.5,-328 "/>
<polyline fill="none" stroke="black" points="-15.5,-304 139.5,-304 "/>
<polyline fill="none" stroke="black" points="-15.5,-280 139.5,-280 "/>
<text text-anchor="start" x="-7.5" y="-264.8" font-family="Times,serif" font-size="14.00">_layout</text>
</g>
</g>
</svg>
