<?xml version="1.0" encoding="UTF-8" standalone="no"?>
<!DOCTYPE svg PUBLIC "-//W3C//DTD SVG 1.1//EN"
 "http://www.w3.org/Graphics/SVG/1.1/DTD/svg11.dtd">
<!-- Generated by graphviz version 2.38.0 (20140413.2041)
 -->
<!-- Title: models_diagram Pages: 1 -->
<svg width="659pt" height="374pt"
 viewBox="0.00 0.00 659.29 374.00" xmlns="http://www.w3.org/2000/svg" xmlns:xlink="http://www.w3.org/1999/xlink">
<g id="graph0" class="graph" transform="scale(1 1) rotate(0) translate(4 370)">
<title>models_diagram</title>
<polygon fill="none" stroke="none" points="-4,4 -4,-370 655.292,-370 655.292,4 -4,4"/>
<!-- _diagram_info -->
<g id="node1" class="node"><title>_diagram_info</title>
<text text-anchor="start" x="8" y="-351.6" font-family="Times,serif" font-size="13.00">Models diagram</text>
<text text-anchor="start" x="8" y="-337.6" font-family="Times,serif" font-size="13.00">Date: Sep 27 2017 &#45; 22:17</text>
<text text-anchor="start" x="8" y="-323.6" font-family="Times,serif" font-size="13.00">Migration version: 20170928011417</text>
<text text-anchor="start" x="8" y="-309.6" font-family="Times,serif" font-size="13.00">Generated by RailRoady 1.5.3</text>
<text text-anchor="start" x="8" y="-295.6" font-family="Times,serif" font-size="13.00">http://railroady.prestonlee.com</text>
</g>
<!-- Publication -->
<g id="node2" class="node"><title>Publication</title>
<ellipse fill="none" stroke="black" cx="399" cy="-162" rx="50.8918" ry="18"/>
<text text-anchor="middle" x="399" y="-158.3" font-family="Times,serif" font-size="14.00">Publication</text>
</g>
<!-- PropertyEquipment -->
<g id="node3" class="node"><title>PropertyEquipment</title>
<ellipse fill="none" stroke="black" cx="360" cy="-18" rx="79.8859" ry="18"/>
<text text-anchor="middle" x="360" y="-14.3" font-family="Times,serif" font-size="14.00">PropertyEquipment</text>
</g>
<!-- Publication&#45;&gt;PropertyEquipment -->
<g id="edge1" class="edge"><title>Publication&#45;&gt;PropertyEquipment</title>
<path fill="none" stroke="#d26729" d="M367.882,-141.298C356.94,-132.563 345.906,-121.245 340,-108 331.034,-87.893 337.703,-63.379 345.671,-45.1734"/>
<ellipse fill="none" stroke="#d26729" cx="371.086" cy="-143.723" rx="4.00002" ry="4.00002"/>
<polygon fill="#d26729" stroke="#d26729" points="345.722,-45.0653 354.075,-37.9602 347.866,-40.5481 350.009,-36.031 350.009,-36.031 350.009,-36.031 347.866,-40.5481 345.944,-34.1017 345.722,-45.0653 345.722,-45.0653"/>
</g>
<!-- Equipment -->
<g id="node5" class="node"><title>Equipment</title>
<ellipse fill="none" stroke="black" cx="399" cy="-90" rx="50.0912" ry="18"/>
<text text-anchor="middle" x="399" y="-86.3" font-family="Times,serif" font-size="14.00">Equipment</text>
</g>
<!-- Publication&#45;&gt;Equipment -->
<g id="edge2" class="edge"><title>Publication&#45;&gt;Equipment</title>
<path fill="none" stroke="#3cb61a" d="M399,-133.665C399,-128.687 399,-123.491 399,-118.507"/>
<polygon fill="#3cb61a" stroke="#3cb61a" points="399,-133.697 394.5,-143.697 399,-138.697 399,-143.697 399,-143.697 399,-143.697 399,-138.697 403.5,-143.697 399,-133.697 399,-133.697"/>
<polygon fill="#3cb61a" stroke="#3cb61a" points="399,-118.104 403.5,-108.104 399,-113.104 399,-108.104 399,-108.104 399,-108.104 399,-113.104 394.5,-108.104 399,-118.104 399,-118.104"/>
</g>
<!-- PublicationAttachment -->
<g id="node8" class="node"><title>PublicationAttachment</title>
<ellipse fill="none" stroke="black" cx="559" cy="-90" rx="92.0841" ry="18"/>
<text text-anchor="middle" x="559" y="-86.3" font-family="Times,serif" font-size="14.00">PublicationAttachment</text>
</g>
<!-- Publication&#45;&gt;PublicationAttachment -->
<g id="edge3" class="edge"><title>Publication&#45;&gt;PublicationAttachment</title>
<path fill="none" stroke="#481507" d="M437.318,-144.236C460.345,-134.161 489.765,-121.29 513.909,-110.727"/>
<ellipse fill="none" stroke="#481507" cx="433.514" cy="-145.9" rx="4.00002" ry="4.00002"/>
<polygon fill="#481507" stroke="#481507" points="514.056,-110.663 525.021,-110.778 518.637,-108.659 523.217,-106.655 523.217,-106.655 523.217,-106.655 518.637,-108.659 521.414,-102.532 514.056,-110.663 514.056,-110.663"/>
</g>
<!-- ApplicationRecord -->
<g id="node4" class="node"><title>ApplicationRecord</title>
<ellipse fill="none" stroke="black" cx="400" cy="-327" rx="77.1866" ry="18"/>
<text text-anchor="middle" x="400" y="-323.3" font-family="Times,serif" font-size="14.00">ApplicationRecord</text>
</g>
<!-- Equipment&#45;&gt;PropertyEquipment -->
<g id="edge4" class="edge"><title>Equipment&#45;&gt;PropertyEquipment</title>
<path fill="none" stroke="#f46996" d="M385.532,-64.8269C382.015,-58.5146 378.208,-51.6811 374.634,-45.2658"/>
<ellipse fill="none" stroke="#f46996" cx="387.612" cy="-68.5607" rx="4.00002" ry="4.00002"/>
<polygon fill="#f46996" stroke="#f46996" points="374.492,-45.011 373.556,-34.0851 372.058,-40.6431 369.625,-36.2753 369.625,-36.2753 369.625,-36.2753 372.058,-40.6431 365.694,-38.4655 374.492,-45.011 374.492,-45.011"/>
</g>
<!-- Region -->
<g id="node6" class="node"><title>Region</title>
<ellipse fill="none" stroke="black" cx="268" cy="-327" rx="36.2938" ry="18"/>
<text text-anchor="middle" x="268" y="-323.3" font-family="Times,serif" font-size="14.00">Region</text>
</g>
<!-- Region&#45;&gt;Publication -->
<g id="edge6" class="edge"><title>Region&#45;&gt;Publication</title>
<path fill="none" stroke="#b165a9" d="M254.567,-302.152C243.085,-278.239 231.026,-241.414 249,-216 269.451,-187.084 307.051,-173.838 339.488,-167.819"/>
<ellipse fill="none" stroke="#b165a9" cx="256.435" cy="-305.859" rx="4.00002" ry="4.00002"/>
<polygon fill="#b165a9" stroke="#b165a9" points="339.5,-167.817 350.104,-170.613 344.432,-166.996 349.364,-166.174 349.364,-166.174 349.364,-166.174 344.432,-166.996 348.625,-161.735 339.5,-167.817 339.5,-167.817"/>
</g>
<!-- Commune -->
<g id="node7" class="node"><title>Commune</title>
<ellipse fill="none" stroke="black" cx="306" cy="-234" rx="48.1917" ry="18"/>
<text text-anchor="middle" x="306" y="-230.3" font-family="Times,serif" font-size="14.00">Commune</text>
</g>
<!-- Region&#45;&gt;Commune -->
<g id="edge5" class="edge"><title>Region&#45;&gt;Commune</title>
<path fill="none" stroke="#a7ea61" d="M278.213,-301.543C283.387,-289.152 289.677,-274.09 294.962,-261.432"/>
<ellipse fill="none" stroke="#a7ea61" cx="276.511" cy="-305.618" rx="4.00001" ry="4.00001"/>
<polygon fill="#a7ea61" stroke="#a7ea61" points="295.092,-261.121 303.098,-253.627 297.019,-256.507 298.946,-251.893 298.946,-251.893 298.946,-251.893 297.019,-256.507 294.793,-250.159 295.092,-261.121 295.092,-261.121"/>
</g>
<!-- Commune&#45;&gt;Publication -->
<g id="edge7" class="edge"><title>Commune&#45;&gt;Publication</title>
<path fill="none" stroke="#76ac54" d="M333.048,-212.641C344.696,-203.874 358.33,-193.612 370.169,-184.701"/>
<ellipse fill="none" stroke="#76ac54" cx="329.836" cy="-215.059" rx="4.00002" ry="4.00002"/>
<polygon fill="#76ac54" stroke="#76ac54" points="370.428,-184.506 381.124,-182.087 374.423,-181.499 378.418,-178.492 378.418,-178.492 378.418,-178.492 374.423,-181.499 375.712,-174.896 370.428,-184.506 370.428,-184.506"/>
</g>
<!-- User -->
<g id="node9" class="node"><title>User</title>
<ellipse fill="none" stroke="black" cx="399" cy="-234" rx="27.0966" ry="18"/>
<text text-anchor="middle" x="399" y="-230.3" font-family="Times,serif" font-size="14.00">User</text>
</g>
<!-- User&#45;&gt;Publication -->
<g id="edge8" class="edge"><title>User&#45;&gt;Publication</title>
<path fill="none" stroke="#332156" d="M399,-207.64C399,-202.063 399,-196.132 399,-190.476"/>
<ellipse fill="none" stroke="#332156" cx="399" cy="-211.697" rx="4" ry="4"/>
<polygon fill="#332156" stroke="#332156" points="399,-190.104 403.5,-180.104 399,-185.104 399,-180.104 399,-180.104 399,-180.104 399,-185.104 394.5,-180.104 399,-190.104 399,-190.104"/>
</g>
<!-- Type -->
<g id="node10" class="node"><title>Type</title>
<ellipse fill="none" stroke="black" cx="473" cy="-234" rx="28.6953" ry="18"/>
<text text-anchor="middle" x="473" y="-230.3" font-family="Times,serif" font-size="14.00">Type</text>
</g>
<!-- Type&#45;&gt;Publication -->
<g id="edge9" class="edge"><title>Type&#45;&gt;Publication</title>
<path fill="none" stroke="#16d76e" d="M451.676,-212.829C442.858,-204.487 432.581,-194.766 423.458,-186.136"/>
<ellipse fill="none" stroke="#16d76e" cx="454.761" cy="-215.747" rx="4.00002" ry="4.00002"/>
<polygon fill="#16d76e" stroke="#16d76e" points="423.389,-186.07 419.216,-175.929 419.756,-182.634 416.124,-179.198 416.124,-179.198 416.124,-179.198 419.756,-182.634 413.031,-182.467 423.389,-186.07 423.389,-186.07"/>
</g>
<!-- Category -->
<g id="node11" class="node"><title>Category</title>
<ellipse fill="none" stroke="black" cx="562" cy="-234" rx="42.7926" ry="18"/>
<text text-anchor="middle" x="562" y="-230.3" font-family="Times,serif" font-size="14.00">Category</text>
</g>
<!-- Category&#45;&gt;Publication -->
<g id="edge10" class="edge"><title>Category&#45;&gt;Publication</title>
<path fill="none" stroke="#0a6f85" d="M525.806,-217.457C500.197,-206.459 465.84,-191.704 439.348,-180.327"/>
<ellipse fill="none" stroke="#0a6f85" cx="529.559" cy="-219.068" rx="4.00002" ry="4.00002"/>
<polygon fill="#0a6f85" stroke="#0a6f85" points="439.163,-180.248 431.75,-172.167 434.569,-178.275 429.974,-176.302 429.974,-176.302 429.974,-176.302 434.569,-178.275 428.199,-180.437 439.163,-180.248 439.163,-180.248"/>
</g>
</g>
</svg>
