<?xml version="1.0" encoding="UTF-8" standalone="no"?>
<!DOCTYPE svg PUBLIC "-//W3C//DTD SVG 1.1//EN"
 "http://www.w3.org/Graphics/SVG/1.1/DTD/svg11.dtd">
<!-- Generated by graphviz version 2.38.0 (20140413.2041)
 -->
<!-- Title: models_diagram Pages: 1 -->
<svg width="1415pt" height="1017pt"
 viewBox="0.00 0.00 1415.00 1017.00" xmlns="http://www.w3.org/2000/svg" xmlns:xlink="http://www.w3.org/1999/xlink">
<g id="graph0" class="graph" transform="scale(1 1) rotate(0) translate(4 1013)">
<title>models_diagram</title>
<polygon fill="none" stroke="none" points="-4,4 -4,-1013 1411,-1013 1411,4 -4,4"/>
<!-- _diagram_info -->
<g id="node1" class="node"><title>_diagram_info</title>
<text text-anchor="start" x="8" y="-987.6" font-family="Times,serif" font-size="13.00">Models diagram</text>
<text text-anchor="start" x="8" y="-973.6" font-family="Times,serif" font-size="13.00">Date: Sep 27 2017 &#45; 22:17</text>
<text text-anchor="start" x="8" y="-959.6" font-family="Times,serif" font-size="13.00">Migration version: 20170928011417</text>
<text text-anchor="start" x="8" y="-945.6" font-family="Times,serif" font-size="13.00">Generated by RailRoady 1.5.3</text>
<text text-anchor="start" x="8" y="-931.6" font-family="Times,serif" font-size="13.00">http://railroady.prestonlee.com</text>
</g>
<!-- Publication -->
<g id="node2" class="node"><title>Publication</title>
<path fill="none" stroke="black" d="M616,-286.5C616,-286.5 836,-286.5 836,-286.5 842,-286.5 848,-292.5 848,-298.5 848,-298.5 848,-545.5 848,-545.5 848,-551.5 842,-557.5 836,-557.5 836,-557.5 616,-557.5 616,-557.5 610,-557.5 604,-551.5 604,-545.5 604,-545.5 604,-298.5 604,-298.5 604,-292.5 610,-286.5 616,-286.5"/>
<text text-anchor="middle" x="726" y="-542.3" font-family="Times,serif" font-size="14.00">Publication</text>
<polyline fill="none" stroke="black" points="604,-534.5 848,-534.5 "/>
<text text-anchor="start" x="612" y="-519.3" font-family="Times,serif" font-size="14.00">id :integer</text>
<text text-anchor="start" x="612" y="-504.3" font-family="Times,serif" font-size="14.00">title :character varying</text>
<text text-anchor="start" x="612" y="-489.3" font-family="Times,serif" font-size="14.00">bedroom :integer</text>
<text text-anchor="start" x="612" y="-474.3" font-family="Times,serif" font-size="14.00">bath :integer</text>
<text text-anchor="start" x="612" y="-459.3" font-family="Times,serif" font-size="14.00">parking :integer</text>
<text text-anchor="start" x="612" y="-444.3" font-family="Times,serif" font-size="14.00">description :text</text>
<text text-anchor="start" x="612" y="-429.3" font-family="Times,serif" font-size="14.00">price :integer</text>
<text text-anchor="start" x="612" y="-414.3" font-family="Times,serif" font-size="14.00">created_at :timestamp without time zone</text>
<text text-anchor="start" x="612" y="-399.3" font-family="Times,serif" font-size="14.00">updated_at :timestamp without time zone</text>
<text text-anchor="start" x="612" y="-384.3" font-family="Times,serif" font-size="14.00">user_id :integer</text>
<text text-anchor="start" x="612" y="-369.3" font-family="Times,serif" font-size="14.00">commune_id :integer</text>
<text text-anchor="start" x="612" y="-354.3" font-family="Times,serif" font-size="14.00">category_id :integer</text>
<text text-anchor="start" x="612" y="-339.3" font-family="Times,serif" font-size="14.00">type_id :integer</text>
<text text-anchor="start" x="612" y="-324.3" font-family="Times,serif" font-size="14.00">region_id :integer</text>
<text text-anchor="start" x="612" y="-309.3" font-family="Times,serif" font-size="14.00">photo :character varying</text>
<text text-anchor="start" x="612" y="-294.3" font-family="Times,serif" font-size="14.00">page_views :integer</text>
</g>
<!-- PropertyEquipment -->
<g id="node3" class="node"><title>PropertyEquipment</title>
<path fill="none" stroke="black" d="M541,-0.5C541,-0.5 761,-0.5 761,-0.5 767,-0.5 773,-6.5 773,-12.5 773,-12.5 773,-94.5 773,-94.5 773,-100.5 767,-106.5 761,-106.5 761,-106.5 541,-106.5 541,-106.5 535,-106.5 529,-100.5 529,-94.5 529,-94.5 529,-12.5 529,-12.5 529,-6.5 535,-0.5 541,-0.5"/>
<text text-anchor="middle" x="651" y="-91.3" font-family="Times,serif" font-size="14.00">PropertyEquipment</text>
<polyline fill="none" stroke="black" points="529,-83.5 773,-83.5 "/>
<text text-anchor="start" x="537" y="-68.3" font-family="Times,serif" font-size="14.00">id :integer</text>
<text text-anchor="start" x="537" y="-53.3" font-family="Times,serif" font-size="14.00">publication_id :integer</text>
<text text-anchor="start" x="537" y="-38.3" font-family="Times,serif" font-size="14.00">equipment_id :integer</text>
<text text-anchor="start" x="537" y="-23.3" font-family="Times,serif" font-size="14.00">created_at :timestamp without time zone</text>
<text text-anchor="start" x="537" y="-8.3" font-family="Times,serif" font-size="14.00">updated_at :timestamp without time zone</text>
</g>
<!-- Publication&#45;&gt;PropertyEquipment -->
<g id="edge1" class="edge"><title>Publication&#45;&gt;PropertyEquipment</title>
<path fill="none" stroke="#a3d695" d="M607.303,-279.176C602.523,-269.634 598.349,-259.878 595,-250 579.731,-204.962 581.763,-188.676 595,-143 597.667,-133.798 601.609,-124.634 606.188,-115.883"/>
<ellipse fill="none" stroke="#a3d695" cx="609.228" cy="-282.881" rx="4.00002" ry="4.00002"/>
<polygon fill="#a3d695" stroke="#a3d695" points="606.306,-115.669 615.097,-109.114 608.734,-111.299 611.163,-106.928 611.163,-106.928 611.163,-106.928 608.734,-111.299 607.229,-104.742 606.306,-115.669 606.306,-115.669"/>
</g>
<!-- Equipment -->
<g id="node5" class="node"><title>Equipment</title>
<path fill="none" stroke="black" d="M616,-151C616,-151 836,-151 836,-151 842,-151 848,-157 848,-163 848,-163 848,-230 848,-230 848,-236 842,-242 836,-242 836,-242 616,-242 616,-242 610,-242 604,-236 604,-230 604,-230 604,-163 604,-163 604,-157 610,-151 616,-151"/>
<text text-anchor="middle" x="726" y="-226.8" font-family="Times,serif" font-size="14.00">Equipment</text>
<polyline fill="none" stroke="black" points="604,-219 848,-219 "/>
<text text-anchor="start" x="612" y="-203.8" font-family="Times,serif" font-size="14.00">id :integer</text>
<text text-anchor="start" x="612" y="-188.8" font-family="Times,serif" font-size="14.00">name :character varying</text>
<text text-anchor="start" x="612" y="-173.8" font-family="Times,serif" font-size="14.00">created_at :timestamp without time zone</text>
<text text-anchor="start" x="612" y="-158.8" font-family="Times,serif" font-size="14.00">updated_at :timestamp without time zone</text>
</g>
<!-- Publication&#45;&gt;Equipment -->
<g id="edge2" class="edge"><title>Publication&#45;&gt;Equipment</title>
<path fill="none" stroke="#700c19" d="M726,-276.147C726,-267.792 726,-259.708 726,-252.108"/>
<polygon fill="#700c19" stroke="#700c19" points="726,-276.475 721.5,-286.475 726,-281.475 726,-286.475 726,-286.475 726,-286.475 726,-281.475 730.5,-286.475 726,-276.475 726,-276.475"/>
<polygon fill="#700c19" stroke="#700c19" points="726,-252.062 730.5,-242.062 726,-247.062 726,-242.062 726,-242.062 726,-242.062 726,-247.062 721.5,-242.062 726,-252.062 726,-252.062"/>
</g>
<!-- PublicationAttachment -->
<g id="node8" class="node"><title>PublicationAttachment</title>
<path fill="none" stroke="black" d="M878,-143.5C878,-143.5 1098,-143.5 1098,-143.5 1104,-143.5 1110,-149.5 1110,-155.5 1110,-155.5 1110,-237.5 1110,-237.5 1110,-243.5 1104,-249.5 1098,-249.5 1098,-249.5 878,-249.5 878,-249.5 872,-249.5 866,-243.5 866,-237.5 866,-237.5 866,-155.5 866,-155.5 866,-149.5 872,-143.5 878,-143.5"/>
<text text-anchor="middle" x="988" y="-234.3" font-family="Times,serif" font-size="14.00">PublicationAttachment</text>
<polyline fill="none" stroke="black" points="866,-226.5 1110,-226.5 "/>
<text text-anchor="start" x="874" y="-211.3" font-family="Times,serif" font-size="14.00">id :integer</text>
<text text-anchor="start" x="874" y="-196.3" font-family="Times,serif" font-size="14.00">photo :character varying</text>
<text text-anchor="start" x="874" y="-181.3" font-family="Times,serif" font-size="14.00">publication_id :integer</text>
<text text-anchor="start" x="874" y="-166.3" font-family="Times,serif" font-size="14.00">created_at :timestamp without time zone</text>
<text text-anchor="start" x="874" y="-151.3" font-family="Times,serif" font-size="14.00">updated_at :timestamp without time zone</text>
</g>
<!-- Publication&#45;&gt;PublicationAttachment -->
<g id="edge3" class="edge"><title>Publication&#45;&gt;PublicationAttachment</title>
<path fill="none" stroke="#b455b3" d="M854.275,-311.575C876.667,-292.473 899.166,-273.28 919.152,-256.231"/>
<ellipse fill="none" stroke="#b455b3" cx="851.222" cy="-314.179" rx="4.00002" ry="4.00002"/>
<polygon fill="#b455b3" stroke="#b455b3" points="919.364,-256.05 929.893,-252.983 923.168,-252.805 926.972,-249.56 926.972,-249.56 926.972,-249.56 923.168,-252.805 924.052,-246.136 919.364,-256.05 919.364,-256.05"/>
</g>
<!-- ApplicationRecord -->
<g id="node4" class="node"><title>ApplicationRecord</title>
<ellipse fill="none" stroke="black" cx="571" cy="-963" rx="77.1866" ry="18"/>
<text text-anchor="middle" x="571" y="-959.3" font-family="Times,serif" font-size="14.00">ApplicationRecord</text>
</g>
<!-- Equipment&#45;&gt;PropertyEquipment -->
<g id="edge4" class="edge"><title>Equipment&#45;&gt;PropertyEquipment</title>
<path fill="none" stroke="#50d3d1" d="M698.352,-143.521C693.51,-134.418 688.432,-124.872 683.473,-115.55"/>
<ellipse fill="none" stroke="#50d3d1" cx="700.391" cy="-147.355" rx="4.00002" ry="4.00002"/>
<polygon fill="#50d3d1" stroke="#50d3d1" points="683.464,-115.531 682.74,-104.589 681.115,-111.117 678.767,-106.703 678.767,-106.703 678.767,-106.703 681.115,-111.117 674.794,-108.816 683.464,-115.531 683.464,-115.531"/>
</g>
<!-- Region -->
<g id="node6" class="node"><title>Region</title>
<path fill="none" stroke="black" d="M244,-917.5C244,-917.5 464,-917.5 464,-917.5 470,-917.5 476,-923.5 476,-929.5 476,-929.5 476,-996.5 476,-996.5 476,-1002.5 470,-1008.5 464,-1008.5 464,-1008.5 244,-1008.5 244,-1008.5 238,-1008.5 232,-1002.5 232,-996.5 232,-996.5 232,-929.5 232,-929.5 232,-923.5 238,-917.5 244,-917.5"/>
<text text-anchor="middle" x="354" y="-993.3" font-family="Times,serif" font-size="14.00">Region</text>
<polyline fill="none" stroke="black" points="232,-985.5 476,-985.5 "/>
<text text-anchor="start" x="240" y="-970.3" font-family="Times,serif" font-size="14.00">id :integer</text>
<text text-anchor="start" x="240" y="-955.3" font-family="Times,serif" font-size="14.00">name :character varying</text>
<text text-anchor="start" x="240" y="-940.3" font-family="Times,serif" font-size="14.00">created_at :timestamp without time zone</text>
<text text-anchor="start" x="240" y="-925.3" font-family="Times,serif" font-size="14.00">updated_at :timestamp without time zone</text>
</g>
<!-- Region&#45;&gt;Publication -->
<g id="edge6" class="edge"><title>Region&#45;&gt;Publication</title>
<path fill="none" stroke="#5028c6" d="M311.745,-910.455C306.095,-901.137 301.165,-891.144 298,-881 260.006,-759.234 226.467,-699.61 298,-594 363.683,-497.026 494.181,-455.042 593.9,-436.868"/>
<ellipse fill="none" stroke="#5028c6" cx="314.042" cy="-914.065" rx="4.00002" ry="4.00002"/>
<polygon fill="#5028c6" stroke="#5028c6" points="593.907,-436.867 604.537,-439.562 598.832,-435.998 603.756,-435.13 603.756,-435.13 603.756,-435.13 598.832,-435.998 602.974,-430.699 593.907,-436.867 593.907,-436.867"/>
</g>
<!-- Commune -->
<g id="node7" class="node"><title>Commune</title>
<path fill="none" stroke="black" d="M319,-677C319,-677 539,-677 539,-677 545,-677 551,-683 551,-689 551,-689 551,-786 551,-786 551,-792 545,-798 539,-798 539,-798 319,-798 319,-798 313,-798 307,-792 307,-786 307,-786 307,-689 307,-689 307,-683 313,-677 319,-677"/>
<text text-anchor="middle" x="429" y="-782.8" font-family="Times,serif" font-size="14.00">Commune</text>
<polyline fill="none" stroke="black" points="307,-775 551,-775 "/>
<text text-anchor="start" x="315" y="-759.8" font-family="Times,serif" font-size="14.00">id :integer</text>
<text text-anchor="start" x="315" y="-744.8" font-family="Times,serif" font-size="14.00">name :character varying</text>
<text text-anchor="start" x="315" y="-729.8" font-family="Times,serif" font-size="14.00">created_at :timestamp without time zone</text>
<text text-anchor="start" x="315" y="-714.8" font-family="Times,serif" font-size="14.00">updated_at :timestamp without time zone</text>
<text text-anchor="start" x="315" y="-699.8" font-family="Times,serif" font-size="14.00">region_id :integer</text>
<text text-anchor="start" x="315" y="-684.8" font-family="Times,serif" font-size="14.00">province :character varying</text>
</g>
<!-- Region&#45;&gt;Commune -->
<g id="edge5" class="edge"><title>Region&#45;&gt;Commune</title>
<path fill="none" stroke="#5b3e73" d="M371.618,-909.498C381.791,-879.181 394.711,-840.681 405.714,-807.892"/>
<ellipse fill="none" stroke="#5b3e73" cx="370.27" cy="-913.516" rx="4.00001" ry="4.00001"/>
<polygon fill="#5b3e73" stroke="#5b3e73" points="405.731,-807.842 413.178,-799.793 407.321,-803.102 408.912,-798.362 408.912,-798.362 408.912,-798.362 407.321,-803.102 404.646,-796.93 405.731,-807.842 405.731,-807.842"/>
</g>
<!-- Commune&#45;&gt;Publication -->
<g id="edge7" class="edge"><title>Commune&#45;&gt;Publication</title>
<path fill="none" stroke="#a5d165" d="M488.715,-670.795C510.95,-646.528 536.492,-618.884 560,-594 571.757,-581.555 584.05,-568.665 596.399,-555.8"/>
<ellipse fill="none" stroke="#a5d165" cx="485.838" cy="-673.938" rx="4.00002" ry="4.00002"/>
<polygon fill="#a5d165" stroke="#a5d165" points="596.744,-555.441 606.918,-551.349 600.208,-551.836 603.673,-548.231 603.673,-548.231 603.673,-548.231 600.208,-551.836 600.429,-545.113 596.744,-555.441 596.744,-555.441"/>
</g>
<!-- User -->
<g id="node9" class="node"><title>User</title>
<path fill="none" stroke="black" d="M581.5,-594.5C581.5,-594.5 870.5,-594.5 870.5,-594.5 876.5,-594.5 882.5,-600.5 882.5,-606.5 882.5,-606.5 882.5,-868.5 882.5,-868.5 882.5,-874.5 876.5,-880.5 870.5,-880.5 870.5,-880.5 581.5,-880.5 581.5,-880.5 575.5,-880.5 569.5,-874.5 569.5,-868.5 569.5,-868.5 569.5,-606.5 569.5,-606.5 569.5,-600.5 575.5,-594.5 581.5,-594.5"/>
<text text-anchor="middle" x="726" y="-865.3" font-family="Times,serif" font-size="14.00">User</text>
<polyline fill="none" stroke="black" points="569.5,-857.5 882.5,-857.5 "/>
<text text-anchor="start" x="577.5" y="-842.3" font-family="Times,serif" font-size="14.00">id :integer</text>
<text text-anchor="start" x="577.5" y="-827.3" font-family="Times,serif" font-size="14.00">email :character varying</text>
<text text-anchor="start" x="577.5" y="-812.3" font-family="Times,serif" font-size="14.00">encrypted_password :character varying</text>
<text text-anchor="start" x="577.5" y="-797.3" font-family="Times,serif" font-size="14.00">reset_password_token :character varying</text>
<text text-anchor="start" x="577.5" y="-782.3" font-family="Times,serif" font-size="14.00">reset_password_sent_at :timestamp without time zone</text>
<text text-anchor="start" x="577.5" y="-767.3" font-family="Times,serif" font-size="14.00">remember_created_at :timestamp without time zone</text>
<text text-anchor="start" x="577.5" y="-752.3" font-family="Times,serif" font-size="14.00">sign_in_count :integer</text>
<text text-anchor="start" x="577.5" y="-737.3" font-family="Times,serif" font-size="14.00">current_sign_in_at :timestamp without time zone</text>
<text text-anchor="start" x="577.5" y="-722.3" font-family="Times,serif" font-size="14.00">last_sign_in_at :timestamp without time zone</text>
<text text-anchor="start" x="577.5" y="-707.3" font-family="Times,serif" font-size="14.00">current_sign_in_ip :inet</text>
<text text-anchor="start" x="577.5" y="-692.3" font-family="Times,serif" font-size="14.00">last_sign_in_ip :inet</text>
<text text-anchor="start" x="577.5" y="-677.3" font-family="Times,serif" font-size="14.00">created_at :timestamp without time zone</text>
<text text-anchor="start" x="577.5" y="-662.3" font-family="Times,serif" font-size="14.00">updated_at :timestamp without time zone</text>
<text text-anchor="start" x="577.5" y="-647.3" font-family="Times,serif" font-size="14.00">name :character varying</text>
<text text-anchor="start" x="577.5" y="-632.3" font-family="Times,serif" font-size="14.00">phone :integer</text>
<text text-anchor="start" x="577.5" y="-617.3" font-family="Times,serif" font-size="14.00">role :integer</text>
<text text-anchor="start" x="577.5" y="-602.3" font-family="Times,serif" font-size="14.00">avatar :character varying</text>
</g>
<!-- User&#45;&gt;Publication -->
<g id="edge8" class="edge"><title>User&#45;&gt;Publication</title>
<path fill="none" stroke="#4b4032" d="M726,-586.153C726,-580.113 726,-574.061 726,-568.032"/>
<ellipse fill="none" stroke="#4b4032" cx="726" cy="-590.426" rx="4" ry="4"/>
<polygon fill="#4b4032" stroke="#4b4032" points="726,-567.914 730.5,-557.914 726,-562.914 726,-557.914 726,-557.914 726,-557.914 726,-562.914 721.5,-557.914 726,-567.914 726,-567.914"/>
</g>
<!-- Type -->
<g id="node10" class="node"><title>Type</title>
<path fill="none" stroke="black" d="M913,-692C913,-692 1133,-692 1133,-692 1139,-692 1145,-698 1145,-704 1145,-704 1145,-771 1145,-771 1145,-777 1139,-783 1133,-783 1133,-783 913,-783 913,-783 907,-783 901,-777 901,-771 901,-771 901,-704 901,-704 901,-698 907,-692 913,-692"/>
<text text-anchor="middle" x="1023" y="-767.8" font-family="Times,serif" font-size="14.00">Type</text>
<polyline fill="none" stroke="black" points="901,-760 1145,-760 "/>
<text text-anchor="start" x="909" y="-744.8" font-family="Times,serif" font-size="14.00">id :integer</text>
<text text-anchor="start" x="909" y="-729.8" font-family="Times,serif" font-size="14.00">name :character varying</text>
<text text-anchor="start" x="909" y="-714.8" font-family="Times,serif" font-size="14.00">created_at :timestamp without time zone</text>
<text text-anchor="start" x="909" y="-699.8" font-family="Times,serif" font-size="14.00">updated_at :timestamp without time zone</text>
</g>
<!-- Type&#45;&gt;Publication -->
<g id="edge9" class="edge"><title>Type&#45;&gt;Publication</title>
<path fill="none" stroke="#d535e7" d="M977.042,-685.838C952.066,-658.476 920.535,-624.205 892,-594 880.243,-581.555 867.95,-568.665 855.601,-555.8"/>
<ellipse fill="none" stroke="#d535e7" cx="979.897" cy="-688.968" rx="4.00002" ry="4.00002"/>
<polygon fill="#d535e7" stroke="#d535e7" points="855.256,-555.441 851.571,-545.113 851.792,-551.836 848.327,-548.231 848.327,-548.231 848.327,-548.231 851.792,-551.836 845.082,-551.349 855.256,-555.441 855.256,-555.441"/>
</g>
<!-- Category -->
<g id="node11" class="node"><title>Category</title>
<path fill="none" stroke="black" d="M1175,-692C1175,-692 1395,-692 1395,-692 1401,-692 1407,-698 1407,-704 1407,-704 1407,-771 1407,-771 1407,-777 1401,-783 1395,-783 1395,-783 1175,-783 1175,-783 1169,-783 1163,-777 1163,-771 1163,-771 1163,-704 1163,-704 1163,-698 1169,-692 1175,-692"/>
<text text-anchor="middle" x="1285" y="-767.8" font-family="Times,serif" font-size="14.00">Category</text>
<polyline fill="none" stroke="black" points="1163,-760 1407,-760 "/>
<text text-anchor="start" x="1171" y="-744.8" font-family="Times,serif" font-size="14.00">id :integer</text>
<text text-anchor="start" x="1171" y="-729.8" font-family="Times,serif" font-size="14.00">name :character varying</text>
<text text-anchor="start" x="1171" y="-714.8" font-family="Times,serif" font-size="14.00">created_at :timestamp without time zone</text>
<text text-anchor="start" x="1171" y="-699.8" font-family="Times,serif" font-size="14.00">updated_at :timestamp without time zone</text>
</g>
<!-- Category&#45;&gt;Publication -->
<g id="edge10" class="edge"><title>Category&#45;&gt;Publication</title>
<path fill="none" stroke="#2ca030" d="M1247.56,-685.428C1223.54,-655.556 1190.16,-618.937 1154,-594 1063.43,-531.54 946.695,-486.846 858.019,-458.852"/>
<ellipse fill="none" stroke="#2ca030" cx="1250.05" cy="-688.562" rx="4.00002" ry="4.00002"/>
<polygon fill="#2ca030" stroke="#2ca030" points="857.985,-458.842 849.782,-451.564 853.212,-457.35 848.44,-455.859 848.44,-455.859 848.44,-455.859 853.212,-457.35 847.098,-460.154 857.985,-458.842 857.985,-458.842"/>
</g>
</g>
</svg>
