<?xml version="1.0" encoding="UTF-8" standalone="no"?>
<!DOCTYPE svg PUBLIC "-//W3C//DTD SVG 1.1//EN"
 "http://www.w3.org/Graphics/SVG/1.1/DTD/svg11.dtd">
<!-- Generated by graphviz version 2.38.0 (20140413.2041)
 -->
<!-- Title: models_diagram Pages: 1 -->
<svg width="1415pt" height="972pt"
 viewBox="0.00 0.00 1415.00 972.00" xmlns="http://www.w3.org/2000/svg" xmlns:xlink="http://www.w3.org/1999/xlink">
<g id="graph0" class="graph" transform="scale(1 1) rotate(0) translate(4 968)">
<title>models_diagram</title>
<polygon fill="none" stroke="none" points="-4,4 -4,-968 1411,-968 1411,4 -4,4"/>
<!-- _diagram_info -->
<g id="node1" class="node"><title>_diagram_info</title>
<text text-anchor="start" x="8" y="-942.6" font-family="Times,serif" font-size="13.00">Models diagram</text>
<text text-anchor="start" x="8" y="-928.6" font-family="Times,serif" font-size="13.00">Date: Aug 25 2017 &#45; 19:51</text>
<text text-anchor="start" x="8" y="-914.6" font-family="Times,serif" font-size="13.00">Migration version: 20170825224900</text>
<text text-anchor="start" x="8" y="-900.6" font-family="Times,serif" font-size="13.00">Generated by RailRoady 1.5.3</text>
<text text-anchor="start" x="8" y="-886.6" font-family="Times,serif" font-size="13.00">http://railroady.prestonlee.com</text>
</g>
<!-- Publication -->
<g id="node2" class="node"><title>Publication</title>
<path fill="none" stroke="black" d="M616,-271.5C616,-271.5 836,-271.5 836,-271.5 842,-271.5 848,-277.5 848,-283.5 848,-283.5 848,-515.5 848,-515.5 848,-521.5 842,-527.5 836,-527.5 836,-527.5 616,-527.5 616,-527.5 610,-527.5 604,-521.5 604,-515.5 604,-515.5 604,-283.5 604,-283.5 604,-277.5 610,-271.5 616,-271.5"/>
<text text-anchor="middle" x="726" y="-512.3" font-family="Times,serif" font-size="14.00">Publication</text>
<polyline fill="none" stroke="black" points="604,-504.5 848,-504.5 "/>
<text text-anchor="start" x="612" y="-489.3" font-family="Times,serif" font-size="14.00">id :integer</text>
<text text-anchor="start" x="612" y="-474.3" font-family="Times,serif" font-size="14.00">title :character varying</text>
<text text-anchor="start" x="612" y="-459.3" font-family="Times,serif" font-size="14.00">bedroom :integer</text>
<text text-anchor="start" x="612" y="-444.3" font-family="Times,serif" font-size="14.00">bath :integer</text>
<text text-anchor="start" x="612" y="-429.3" font-family="Times,serif" font-size="14.00">parking :integer</text>
<text text-anchor="start" x="612" y="-414.3" font-family="Times,serif" font-size="14.00">equipment :character varying</text>
<text text-anchor="start" x="612" y="-399.3" font-family="Times,serif" font-size="14.00">description :text</text>
<text text-anchor="start" x="612" y="-384.3" font-family="Times,serif" font-size="14.00">price :integer</text>
<text text-anchor="start" x="612" y="-369.3" font-family="Times,serif" font-size="14.00">created_at :timestamp without time zone</text>
<text text-anchor="start" x="612" y="-354.3" font-family="Times,serif" font-size="14.00">updated_at :timestamp without time zone</text>
<text text-anchor="start" x="612" y="-339.3" font-family="Times,serif" font-size="14.00">user_id :integer</text>
<text text-anchor="start" x="612" y="-324.3" font-family="Times,serif" font-size="14.00">commune_id :integer</text>
<text text-anchor="start" x="612" y="-309.3" font-family="Times,serif" font-size="14.00">category_id :integer</text>
<text text-anchor="start" x="612" y="-294.3" font-family="Times,serif" font-size="14.00">type_id :integer</text>
<text text-anchor="start" x="612" y="-279.3" font-family="Times,serif" font-size="14.00">region_id :integer</text>
</g>
<!-- PropertyEquipment -->
<g id="node3" class="node"><title>PropertyEquipment</title>
<path fill="none" stroke="black" d="M616,-0.5C616,-0.5 836,-0.5 836,-0.5 842,-0.5 848,-6.5 848,-12.5 848,-12.5 848,-94.5 848,-94.5 848,-100.5 842,-106.5 836,-106.5 836,-106.5 616,-106.5 616,-106.5 610,-106.5 604,-100.5 604,-94.5 604,-94.5 604,-12.5 604,-12.5 604,-6.5 610,-0.5 616,-0.5"/>
<text text-anchor="middle" x="726" y="-91.3" font-family="Times,serif" font-size="14.00">PropertyEquipment</text>
<polyline fill="none" stroke="black" points="604,-83.5 848,-83.5 "/>
<text text-anchor="start" x="612" y="-68.3" font-family="Times,serif" font-size="14.00">id :integer</text>
<text text-anchor="start" x="612" y="-53.3" font-family="Times,serif" font-size="14.00">publication_id :integer</text>
<text text-anchor="start" x="612" y="-38.3" font-family="Times,serif" font-size="14.00">equipment_id :integer</text>
<text text-anchor="start" x="612" y="-23.3" font-family="Times,serif" font-size="14.00">created_at :timestamp without time zone</text>
<text text-anchor="start" x="612" y="-8.3" font-family="Times,serif" font-size="14.00">updated_at :timestamp without time zone</text>
</g>
<!-- Publication&#45;&gt;PropertyEquipment -->
<g id="edge1" class="edge"><title>Publication&#45;&gt;PropertyEquipment</title>
<path fill="none" stroke="#ddaefa" d="M671.184,-263.501C662.078,-224.362 658.772,-181.743 670,-143 672.667,-133.798 676.609,-124.634 681.188,-115.883"/>
<ellipse fill="none" stroke="#ddaefa" cx="672.133" cy="-267.394" rx="4.00001" ry="4.00001"/>
<polygon fill="#ddaefa" stroke="#ddaefa" points="681.306,-115.669 690.097,-109.114 683.734,-111.299 686.163,-106.928 686.163,-106.928 686.163,-106.928 683.734,-111.299 682.229,-104.742 681.306,-115.669 681.306,-115.669"/>
</g>
<!-- Equipment -->
<g id="node5" class="node"><title>Equipment</title>
<path fill="none" stroke="black" d="M691,-143.5C691,-143.5 911,-143.5 911,-143.5 917,-143.5 923,-149.5 923,-155.5 923,-155.5 923,-222.5 923,-222.5 923,-228.5 917,-234.5 911,-234.5 911,-234.5 691,-234.5 691,-234.5 685,-234.5 679,-228.5 679,-222.5 679,-222.5 679,-155.5 679,-155.5 679,-149.5 685,-143.5 691,-143.5"/>
<text text-anchor="middle" x="801" y="-219.3" font-family="Times,serif" font-size="14.00">Equipment</text>
<polyline fill="none" stroke="black" points="679,-211.5 923,-211.5 "/>
<text text-anchor="start" x="687" y="-196.3" font-family="Times,serif" font-size="14.00">id :integer</text>
<text text-anchor="start" x="687" y="-181.3" font-family="Times,serif" font-size="14.00">name :character varying</text>
<text text-anchor="start" x="687" y="-166.3" font-family="Times,serif" font-size="14.00">created_at :timestamp without time zone</text>
<text text-anchor="start" x="687" y="-151.3" font-family="Times,serif" font-size="14.00">updated_at :timestamp without time zone</text>
</g>
<!-- Publication&#45;&gt;Equipment -->
<g id="edge2" class="edge"><title>Publication&#45;&gt;Equipment</title>
<path fill="none" stroke="#c31ca5" d="M775.227,-261.649C777.349,-255.749 779.416,-250.003 781.396,-244.5"/>
<polygon fill="#c31ca5" stroke="#c31ca5" points="775.173,-261.799 767.554,-269.685 773.481,-266.504 771.788,-271.209 771.788,-271.209 771.788,-271.209 773.481,-266.504 776.023,-272.732 775.173,-261.799 775.173,-261.799"/>
<polygon fill="#c31ca5" stroke="#c31ca5" points="781.474,-244.282 789.093,-236.396 783.166,-239.577 784.859,-234.873 784.859,-234.873 784.859,-234.873 783.166,-239.577 780.624,-233.349 781.474,-244.282 781.474,-244.282"/>
</g>
<!-- ApplicationRecord -->
<g id="node4" class="node"><title>ApplicationRecord</title>
<ellipse fill="none" stroke="black" cx="571" cy="-918" rx="77.1866" ry="18"/>
<text text-anchor="middle" x="571" y="-914.3" font-family="Times,serif" font-size="14.00">ApplicationRecord</text>
</g>
<!-- Equipment&#45;&gt;PropertyEquipment -->
<g id="edge3" class="edge"><title>Equipment&#45;&gt;PropertyEquipment</title>
<path fill="none" stroke="#b9de51" d="M771.762,-135.956C768.067,-129.379 764.259,-122.602 760.493,-115.897"/>
<ellipse fill="none" stroke="#b9de51" cx="773.858" cy="-139.688" rx="4.00002" ry="4.00002"/>
<polygon fill="#b9de51" stroke="#b9de51" points="760.294,-115.543 759.319,-104.62 757.845,-111.183 755.396,-106.824 755.396,-106.824 755.396,-106.824 757.845,-111.183 751.472,-109.028 760.294,-115.543 760.294,-115.543"/>
</g>
<!-- Region -->
<g id="node6" class="node"><title>Region</title>
<path fill="none" stroke="black" d="M244,-872.5C244,-872.5 464,-872.5 464,-872.5 470,-872.5 476,-878.5 476,-884.5 476,-884.5 476,-951.5 476,-951.5 476,-957.5 470,-963.5 464,-963.5 464,-963.5 244,-963.5 244,-963.5 238,-963.5 232,-957.5 232,-951.5 232,-951.5 232,-884.5 232,-884.5 232,-878.5 238,-872.5 244,-872.5"/>
<text text-anchor="middle" x="354" y="-948.3" font-family="Times,serif" font-size="14.00">Region</text>
<polyline fill="none" stroke="black" points="232,-940.5 476,-940.5 "/>
<text text-anchor="start" x="240" y="-925.3" font-family="Times,serif" font-size="14.00">id :integer</text>
<text text-anchor="start" x="240" y="-910.3" font-family="Times,serif" font-size="14.00">name :character varying</text>
<text text-anchor="start" x="240" y="-895.3" font-family="Times,serif" font-size="14.00">created_at :timestamp without time zone</text>
<text text-anchor="start" x="240" y="-880.3" font-family="Times,serif" font-size="14.00">updated_at :timestamp without time zone</text>
</g>
<!-- Region&#45;&gt;Publication -->
<g id="edge5" class="edge"><title>Region&#45;&gt;Publication</title>
<path fill="none" stroke="#a3a591" d="M311.745,-865.455C306.095,-856.137 301.165,-846.144 298,-836 261.992,-720.598 229.447,-663.572 298,-564 363.958,-468.196 494.21,-428.494 593.786,-412.06"/>
<ellipse fill="none" stroke="#a3a591" cx="314.042" cy="-869.065" rx="4.00002" ry="4.00002"/>
<polygon fill="#a3a591" stroke="#a3a591" points="594.057,-412.017 604.639,-414.892 598.995,-411.232 603.933,-410.448 603.933,-410.448 603.933,-410.448 598.995,-411.232 603.227,-406.004 594.057,-412.017 594.057,-412.017"/>
</g>
<!-- Commune -->
<g id="node7" class="node"><title>Commune</title>
<path fill="none" stroke="black" d="M319,-647C319,-647 539,-647 539,-647 545,-647 551,-653 551,-659 551,-659 551,-741 551,-741 551,-747 545,-753 539,-753 539,-753 319,-753 319,-753 313,-753 307,-747 307,-741 307,-741 307,-659 307,-659 307,-653 313,-647 319,-647"/>
<text text-anchor="middle" x="429" y="-737.8" font-family="Times,serif" font-size="14.00">Commune</text>
<polyline fill="none" stroke="black" points="307,-730 551,-730 "/>
<text text-anchor="start" x="315" y="-714.8" font-family="Times,serif" font-size="14.00">id :integer</text>
<text text-anchor="start" x="315" y="-699.8" font-family="Times,serif" font-size="14.00">name :character varying</text>
<text text-anchor="start" x="315" y="-684.8" font-family="Times,serif" font-size="14.00">created_at :timestamp without time zone</text>
<text text-anchor="start" x="315" y="-669.8" font-family="Times,serif" font-size="14.00">updated_at :timestamp without time zone</text>
<text text-anchor="start" x="315" y="-654.8" font-family="Times,serif" font-size="14.00">region_id :integer</text>
</g>
<!-- Region&#45;&gt;Commune -->
<g id="edge4" class="edge"><title>Region&#45;&gt;Commune</title>
<path fill="none" stroke="#c124ae" d="M372.288,-864.33C382.906,-833.752 396.338,-795.066 407.465,-763.02"/>
<ellipse fill="none" stroke="#c124ae" cx="370.852" cy="-868.466" rx="4.00001" ry="4.00001"/>
<polygon fill="#c124ae" stroke="#c124ae" points="407.558,-762.752 415.09,-754.781 409.199,-758.028 410.839,-753.305 410.839,-753.305 410.839,-753.305 409.199,-758.028 406.588,-751.829 407.558,-762.752 407.558,-762.752"/>
</g>
<!-- Commune&#45;&gt;Publication -->
<g id="edge6" class="edge"><title>Commune&#45;&gt;Publication</title>
<path fill="none" stroke="#6d1f18" d="M484.903,-640.815C508.026,-616.899 535.185,-589 560,-564 571.792,-552.12 584.108,-539.809 596.472,-527.517"/>
<ellipse fill="none" stroke="#6d1f18" cx="481.895" cy="-643.929" rx="4.00002" ry="4.00002"/>
<polygon fill="#6d1f18" stroke="#6d1f18" points="596.658,-527.332 606.925,-523.478 600.206,-523.808 603.754,-520.285 603.754,-520.285 603.754,-520.285 600.206,-523.808 600.582,-517.092 596.658,-527.332 596.658,-527.332"/>
</g>
<!-- User -->
<g id="node8" class="node"><title>User</title>
<path fill="none" stroke="black" d="M581.5,-564.5C581.5,-564.5 870.5,-564.5 870.5,-564.5 876.5,-564.5 882.5,-570.5 882.5,-576.5 882.5,-576.5 882.5,-823.5 882.5,-823.5 882.5,-829.5 876.5,-835.5 870.5,-835.5 870.5,-835.5 581.5,-835.5 581.5,-835.5 575.5,-835.5 569.5,-829.5 569.5,-823.5 569.5,-823.5 569.5,-576.5 569.5,-576.5 569.5,-570.5 575.5,-564.5 581.5,-564.5"/>
<text text-anchor="middle" x="726" y="-820.3" font-family="Times,serif" font-size="14.00">User</text>
<polyline fill="none" stroke="black" points="569.5,-812.5 882.5,-812.5 "/>
<text text-anchor="start" x="577.5" y="-797.3" font-family="Times,serif" font-size="14.00">id :integer</text>
<text text-anchor="start" x="577.5" y="-782.3" font-family="Times,serif" font-size="14.00">email :character varying</text>
<text text-anchor="start" x="577.5" y="-767.3" font-family="Times,serif" font-size="14.00">encrypted_password :character varying</text>
<text text-anchor="start" x="577.5" y="-752.3" font-family="Times,serif" font-size="14.00">reset_password_token :character varying</text>
<text text-anchor="start" x="577.5" y="-737.3" font-family="Times,serif" font-size="14.00">reset_password_sent_at :timestamp without time zone</text>
<text text-anchor="start" x="577.5" y="-722.3" font-family="Times,serif" font-size="14.00">remember_created_at :timestamp without time zone</text>
<text text-anchor="start" x="577.5" y="-707.3" font-family="Times,serif" font-size="14.00">sign_in_count :integer</text>
<text text-anchor="start" x="577.5" y="-692.3" font-family="Times,serif" font-size="14.00">current_sign_in_at :timestamp without time zone</text>
<text text-anchor="start" x="577.5" y="-677.3" font-family="Times,serif" font-size="14.00">last_sign_in_at :timestamp without time zone</text>
<text text-anchor="start" x="577.5" y="-662.3" font-family="Times,serif" font-size="14.00">current_sign_in_ip :inet</text>
<text text-anchor="start" x="577.5" y="-647.3" font-family="Times,serif" font-size="14.00">last_sign_in_ip :inet</text>
<text text-anchor="start" x="577.5" y="-632.3" font-family="Times,serif" font-size="14.00">created_at :timestamp without time zone</text>
<text text-anchor="start" x="577.5" y="-617.3" font-family="Times,serif" font-size="14.00">updated_at :timestamp without time zone</text>
<text text-anchor="start" x="577.5" y="-602.3" font-family="Times,serif" font-size="14.00">name :character varying</text>
<text text-anchor="start" x="577.5" y="-587.3" font-family="Times,serif" font-size="14.00">phone :integer</text>
<text text-anchor="start" x="577.5" y="-572.3" font-family="Times,serif" font-size="14.00">role :integer</text>
</g>
<!-- User&#45;&gt;Publication -->
<g id="edge7" class="edge"><title>User&#45;&gt;Publication</title>
<path fill="none" stroke="#b54f0a" d="M726,-555.953C726,-549.961 726,-543.956 726,-537.977"/>
<ellipse fill="none" stroke="#b54f0a" cx="726" cy="-560.159" rx="4" ry="4"/>
<polygon fill="#b54f0a" stroke="#b54f0a" points="726,-537.945 730.5,-527.945 726,-532.945 726,-527.945 726,-527.945 726,-527.945 726,-532.945 721.5,-527.945 726,-537.945 726,-537.945"/>
</g>
<!-- Type -->
<g id="node9" class="node"><title>Type</title>
<path fill="none" stroke="black" d="M913,-654.5C913,-654.5 1133,-654.5 1133,-654.5 1139,-654.5 1145,-660.5 1145,-666.5 1145,-666.5 1145,-733.5 1145,-733.5 1145,-739.5 1139,-745.5 1133,-745.5 1133,-745.5 913,-745.5 913,-745.5 907,-745.5 901,-739.5 901,-733.5 901,-733.5 901,-666.5 901,-666.5 901,-660.5 907,-654.5 913,-654.5"/>
<text text-anchor="middle" x="1023" y="-730.3" font-family="Times,serif" font-size="14.00">Type</text>
<polyline fill="none" stroke="black" points="901,-722.5 1145,-722.5 "/>
<text text-anchor="start" x="909" y="-707.3" font-family="Times,serif" font-size="14.00">id :integer</text>
<text text-anchor="start" x="909" y="-692.3" font-family="Times,serif" font-size="14.00">name :character varying</text>
<text text-anchor="start" x="909" y="-677.3" font-family="Times,serif" font-size="14.00">created_at :timestamp without time zone</text>
<text text-anchor="start" x="909" y="-662.3" font-family="Times,serif" font-size="14.00">updated_at :timestamp without time zone</text>
</g>
<!-- Type&#45;&gt;Publication -->
<g id="edge8" class="edge"><title>Type&#45;&gt;Publication</title>
<path fill="none" stroke="#80a68a" d="M974.389,-648.363C949.826,-622.916 919.476,-591.681 892,-564 880.208,-552.12 867.892,-539.809 855.528,-527.517"/>
<ellipse fill="none" stroke="#80a68a" cx="977.403" cy="-651.488" rx="4.00002" ry="4.00002"/>
<polygon fill="#80a68a" stroke="#80a68a" points="855.342,-527.332 851.418,-517.092 851.794,-523.808 848.246,-520.285 848.246,-520.285 848.246,-520.285 851.794,-523.808 845.075,-523.478 855.342,-527.332 855.342,-527.332"/>
</g>
<!-- Category -->
<g id="node10" class="node"><title>Category</title>
<path fill="none" stroke="black" d="M1175,-654.5C1175,-654.5 1395,-654.5 1395,-654.5 1401,-654.5 1407,-660.5 1407,-666.5 1407,-666.5 1407,-733.5 1407,-733.5 1407,-739.5 1401,-745.5 1395,-745.5 1395,-745.5 1175,-745.5 1175,-745.5 1169,-745.5 1163,-739.5 1163,-733.5 1163,-733.5 1163,-666.5 1163,-666.5 1163,-660.5 1169,-654.5 1175,-654.5"/>
<text text-anchor="middle" x="1285" y="-730.3" font-family="Times,serif" font-size="14.00">Category</text>
<polyline fill="none" stroke="black" points="1163,-722.5 1407,-722.5 "/>
<text text-anchor="start" x="1171" y="-707.3" font-family="Times,serif" font-size="14.00">id :integer</text>
<text text-anchor="start" x="1171" y="-692.3" font-family="Times,serif" font-size="14.00">name :character varying</text>
<text text-anchor="start" x="1171" y="-677.3" font-family="Times,serif" font-size="14.00">created_at :timestamp without time zone</text>
<text text-anchor="start" x="1171" y="-662.3" font-family="Times,serif" font-size="14.00">updated_at :timestamp without time zone</text>
</g>
<!-- Category&#45;&gt;Publication -->
<g id="edge9" class="edge"><title>Category&#45;&gt;Publication</title>
<path fill="none" stroke="#90c0b5" d="M1245.06,-648.03C1221.09,-620.174 1188.61,-586.805 1154,-564 1062.93,-503.989 946.643,-461.359 858.269,-434.707"/>
<ellipse fill="none" stroke="#90c0b5" cx="1247.76" cy="-651.202" rx="4.00002" ry="4.00002"/>
<polygon fill="#90c0b5" stroke="#90c0b5" points="858.033,-434.637 849.738,-427.465 853.242,-433.207 848.451,-431.777 848.451,-431.777 848.451,-431.777 853.242,-433.207 847.164,-436.089 858.033,-434.637 858.033,-434.637"/>
</g>
</g>
</svg>
