<?xml version="1.0" encoding="UTF-8" standalone="no"?>
<!DOCTYPE svg PUBLIC "-//W3C//DTD SVG 1.1//EN"
 "http://www.w3.org/Graphics/SVG/1.1/DTD/svg11.dtd">
<!-- Generated by graphviz version 2.38.0 (20140413.2041)
 -->
<!-- Title: models_diagram Pages: 1 -->
<svg width="1415pt" height="957pt"
 viewBox="0.00 0.00 1415.00 957.00" xmlns="http://www.w3.org/2000/svg" xmlns:xlink="http://www.w3.org/1999/xlink">
<g id="graph0" class="graph" transform="scale(1 1) rotate(0) translate(4 953)">
<title>models_diagram</title>
<polygon fill="none" stroke="none" points="-4,4 -4,-953 1411,-953 1411,4 -4,4"/>
<!-- _diagram_info -->
<g id="node1" class="node"><title>_diagram_info</title>
<text text-anchor="start" x="8" y="-927.6" font-family="Times,serif" font-size="13.00">Models diagram</text>
<text text-anchor="start" x="8" y="-913.6" font-family="Times,serif" font-size="13.00">Date: Aug 27 2017 &#45; 23:56</text>
<text text-anchor="start" x="8" y="-899.6" font-family="Times,serif" font-size="13.00">Migration version: 20170828025343</text>
<text text-anchor="start" x="8" y="-885.6" font-family="Times,serif" font-size="13.00">Generated by RailRoady 1.5.3</text>
<text text-anchor="start" x="8" y="-871.6" font-family="Times,serif" font-size="13.00">http://railroady.prestonlee.com</text>
</g>
<!-- Publication -->
<g id="node2" class="node"><title>Publication</title>
<path fill="none" stroke="black" d="M616,-271.5C616,-271.5 836,-271.5 836,-271.5 842,-271.5 848,-277.5 848,-283.5 848,-283.5 848,-500.5 848,-500.5 848,-506.5 842,-512.5 836,-512.5 836,-512.5 616,-512.5 616,-512.5 610,-512.5 604,-506.5 604,-500.5 604,-500.5 604,-283.5 604,-283.5 604,-277.5 610,-271.5 616,-271.5"/>
<text text-anchor="middle" x="726" y="-497.3" font-family="Times,serif" font-size="14.00">Publication</text>
<polyline fill="none" stroke="black" points="604,-489.5 848,-489.5 "/>
<text text-anchor="start" x="612" y="-474.3" font-family="Times,serif" font-size="14.00">id :integer</text>
<text text-anchor="start" x="612" y="-459.3" font-family="Times,serif" font-size="14.00">title :character varying</text>
<text text-anchor="start" x="612" y="-444.3" font-family="Times,serif" font-size="14.00">bedroom :integer</text>
<text text-anchor="start" x="612" y="-429.3" font-family="Times,serif" font-size="14.00">bath :integer</text>
<text text-anchor="start" x="612" y="-414.3" font-family="Times,serif" font-size="14.00">parking :integer</text>
<text text-anchor="start" x="612" y="-399.3" font-family="Times,serif" font-size="14.00">description :text</text>
<text text-anchor="start" x="612" y="-384.3" font-family="Times,serif" font-size="14.00">price :integer</text>
<text text-anchor="start" x="612" y="-369.3" font-family="Times,serif" font-size="14.00">created_at :timestamp without time zone</text>
<text text-anchor="start" x="612" y="-354.3" font-family="Times,serif" font-size="14.00">updated_at :timestamp without time zone</text>
<text text-anchor="start" x="612" y="-339.3" font-family="Times,serif" font-size="14.00">user_id :integer</text>
<text text-anchor="start" x="612" y="-324.3" font-family="Times,serif" font-size="14.00">commune_id :integer</text>
<text text-anchor="start" x="612" y="-309.3" font-family="Times,serif" font-size="14.00">category_id :integer</text>
<text text-anchor="start" x="612" y="-294.3" font-family="Times,serif" font-size="14.00">type_id :integer</text>
<text text-anchor="start" x="612" y="-279.3" font-family="Times,serif" font-size="14.00">region_id :integer</text>
</g>
<!-- PropertyEquipment -->
<g id="node3" class="node"><title>PropertyEquipment</title>
<path fill="none" stroke="black" d="M616,-0.5C616,-0.5 836,-0.5 836,-0.5 842,-0.5 848,-6.5 848,-12.5 848,-12.5 848,-94.5 848,-94.5 848,-100.5 842,-106.5 836,-106.5 836,-106.5 616,-106.5 616,-106.5 610,-106.5 604,-100.5 604,-94.5 604,-94.5 604,-12.5 604,-12.5 604,-6.5 610,-0.5 616,-0.5"/>
<text text-anchor="middle" x="726" y="-91.3" font-family="Times,serif" font-size="14.00">PropertyEquipment</text>
<polyline fill="none" stroke="black" points="604,-83.5 848,-83.5 "/>
<text text-anchor="start" x="612" y="-68.3" font-family="Times,serif" font-size="14.00">id :integer</text>
<text text-anchor="start" x="612" y="-53.3" font-family="Times,serif" font-size="14.00">publication_id :integer</text>
<text text-anchor="start" x="612" y="-38.3" font-family="Times,serif" font-size="14.00">equipment_id :integer</text>
<text text-anchor="start" x="612" y="-23.3" font-family="Times,serif" font-size="14.00">created_at :timestamp without time zone</text>
<text text-anchor="start" x="612" y="-8.3" font-family="Times,serif" font-size="14.00">updated_at :timestamp without time zone</text>
</g>
<!-- Publication&#45;&gt;PropertyEquipment -->
<g id="edge1" class="edge"><title>Publication&#45;&gt;PropertyEquipment</title>
<path fill="none" stroke="#103071" d="M672.345,-263.143C662.685,-224.31 658.787,-181.689 670,-143 672.667,-133.798 676.609,-124.634 681.188,-115.883"/>
<ellipse fill="none" stroke="#103071" cx="673.481" cy="-267.498" rx="4.00001" ry="4.00001"/>
<polygon fill="#103071" stroke="#103071" points="681.306,-115.669 690.097,-109.114 683.734,-111.299 686.163,-106.928 686.163,-106.928 686.163,-106.928 683.734,-111.299 682.229,-104.742 681.306,-115.669 681.306,-115.669"/>
</g>
<!-- Equipment -->
<g id="node5" class="node"><title>Equipment</title>
<path fill="none" stroke="black" d="M691,-143.5C691,-143.5 911,-143.5 911,-143.5 917,-143.5 923,-149.5 923,-155.5 923,-155.5 923,-222.5 923,-222.5 923,-228.5 917,-234.5 911,-234.5 911,-234.5 691,-234.5 691,-234.5 685,-234.5 679,-228.5 679,-222.5 679,-222.5 679,-155.5 679,-155.5 679,-149.5 685,-143.5 691,-143.5"/>
<text text-anchor="middle" x="801" y="-219.3" font-family="Times,serif" font-size="14.00">Equipment</text>
<polyline fill="none" stroke="black" points="679,-211.5 923,-211.5 "/>
<text text-anchor="start" x="687" y="-196.3" font-family="Times,serif" font-size="14.00">id :integer</text>
<text text-anchor="start" x="687" y="-181.3" font-family="Times,serif" font-size="14.00">name :character varying</text>
<text text-anchor="start" x="687" y="-166.3" font-family="Times,serif" font-size="14.00">created_at :timestamp without time zone</text>
<text text-anchor="start" x="687" y="-151.3" font-family="Times,serif" font-size="14.00">updated_at :timestamp without time zone</text>
</g>
<!-- Publication&#45;&gt;Equipment -->
<g id="edge2" class="edge"><title>Publication&#45;&gt;Equipment</title>
<path fill="none" stroke="#a3a642" d="M774.2,-261.824C776.422,-255.868 778.59,-250.059 780.668,-244.49"/>
<polygon fill="#a3a642" stroke="#a3a642" points="774.099,-262.096 766.387,-269.891 772.351,-266.78 770.603,-271.465 770.603,-271.465 770.603,-271.465 772.351,-266.78 774.819,-273.038 774.099,-262.096 774.099,-262.096"/>
<polygon fill="#a3a642" stroke="#a3a642" points="780.808,-244.115 788.52,-236.319 782.556,-239.43 784.304,-234.746 784.304,-234.746 784.304,-234.746 782.556,-239.43 780.088,-233.173 780.808,-244.115 780.808,-244.115"/>
</g>
<!-- ApplicationRecord -->
<g id="node4" class="node"><title>ApplicationRecord</title>
<ellipse fill="none" stroke="black" cx="571" cy="-903" rx="77.1866" ry="18"/>
<text text-anchor="middle" x="571" y="-899.3" font-family="Times,serif" font-size="14.00">ApplicationRecord</text>
</g>
<!-- Equipment&#45;&gt;PropertyEquipment -->
<g id="edge3" class="edge"><title>Equipment&#45;&gt;PropertyEquipment</title>
<path fill="none" stroke="#c4719b" d="M771.762,-135.956C768.067,-129.379 764.259,-122.602 760.493,-115.897"/>
<ellipse fill="none" stroke="#c4719b" cx="773.858" cy="-139.688" rx="4.00002" ry="4.00002"/>
<polygon fill="#c4719b" stroke="#c4719b" points="760.294,-115.543 759.319,-104.62 757.845,-111.183 755.396,-106.824 755.396,-106.824 755.396,-106.824 757.845,-111.183 751.472,-109.028 760.294,-115.543 760.294,-115.543"/>
</g>
<!-- Region -->
<g id="node6" class="node"><title>Region</title>
<path fill="none" stroke="black" d="M244,-857.5C244,-857.5 464,-857.5 464,-857.5 470,-857.5 476,-863.5 476,-869.5 476,-869.5 476,-936.5 476,-936.5 476,-942.5 470,-948.5 464,-948.5 464,-948.5 244,-948.5 244,-948.5 238,-948.5 232,-942.5 232,-936.5 232,-936.5 232,-869.5 232,-869.5 232,-863.5 238,-857.5 244,-857.5"/>
<text text-anchor="middle" x="354" y="-933.3" font-family="Times,serif" font-size="14.00">Region</text>
<polyline fill="none" stroke="black" points="232,-925.5 476,-925.5 "/>
<text text-anchor="start" x="240" y="-910.3" font-family="Times,serif" font-size="14.00">id :integer</text>
<text text-anchor="start" x="240" y="-895.3" font-family="Times,serif" font-size="14.00">name :character varying</text>
<text text-anchor="start" x="240" y="-880.3" font-family="Times,serif" font-size="14.00">created_at :timestamp without time zone</text>
<text text-anchor="start" x="240" y="-865.3" font-family="Times,serif" font-size="14.00">updated_at :timestamp without time zone</text>
</g>
<!-- Region&#45;&gt;Publication -->
<g id="edge5" class="edge"><title>Region&#45;&gt;Publication</title>
<path fill="none" stroke="#2b1766" d="M311.745,-850.455C306.095,-841.137 301.165,-831.144 298,-821 261.992,-705.598 228.684,-648.042 298,-549 364.202,-454.408 494.083,-416.97 593.487,-402.261"/>
<ellipse fill="none" stroke="#2b1766" cx="314.042" cy="-854.065" rx="4.00002" ry="4.00002"/>
<polygon fill="#2b1766" stroke="#2b1766" points="593.716,-402.228 604.249,-405.28 598.667,-401.526 603.617,-400.824 603.617,-400.824 603.617,-400.824 598.667,-401.526 602.986,-396.369 593.716,-402.228 593.716,-402.228"/>
</g>
<!-- Commune -->
<g id="node7" class="node"><title>Commune</title>
<path fill="none" stroke="black" d="M319,-632C319,-632 539,-632 539,-632 545,-632 551,-638 551,-644 551,-644 551,-726 551,-726 551,-732 545,-738 539,-738 539,-738 319,-738 319,-738 313,-738 307,-732 307,-726 307,-726 307,-644 307,-644 307,-638 313,-632 319,-632"/>
<text text-anchor="middle" x="429" y="-722.8" font-family="Times,serif" font-size="14.00">Commune</text>
<polyline fill="none" stroke="black" points="307,-715 551,-715 "/>
<text text-anchor="start" x="315" y="-699.8" font-family="Times,serif" font-size="14.00">id :integer</text>
<text text-anchor="start" x="315" y="-684.8" font-family="Times,serif" font-size="14.00">name :character varying</text>
<text text-anchor="start" x="315" y="-669.8" font-family="Times,serif" font-size="14.00">created_at :timestamp without time zone</text>
<text text-anchor="start" x="315" y="-654.8" font-family="Times,serif" font-size="14.00">updated_at :timestamp without time zone</text>
<text text-anchor="start" x="315" y="-639.8" font-family="Times,serif" font-size="14.00">region_id :integer</text>
</g>
<!-- Region&#45;&gt;Commune -->
<g id="edge4" class="edge"><title>Region&#45;&gt;Commune</title>
<path fill="none" stroke="#2ddfe7" d="M372.288,-849.33C382.906,-818.752 396.338,-780.066 407.465,-748.02"/>
<ellipse fill="none" stroke="#2ddfe7" cx="370.852" cy="-853.466" rx="4.00001" ry="4.00001"/>
<polygon fill="#2ddfe7" stroke="#2ddfe7" points="407.558,-747.752 415.09,-739.781 409.199,-743.028 410.839,-738.305 410.839,-738.305 410.839,-738.305 409.199,-743.028 406.588,-736.829 407.558,-747.752 407.558,-747.752"/>
</g>
<!-- Commune&#45;&gt;Publication -->
<g id="edge6" class="edge"><title>Commune&#45;&gt;Publication</title>
<path fill="none" stroke="#938ae3" d="M484.315,-625.828C507.456,-601.798 534.786,-573.813 560,-549 571.782,-537.405 584.141,-525.439 596.576,-513.53"/>
<ellipse fill="none" stroke="#938ae3" cx="481.298" cy="-628.965" rx="4.00002" ry="4.00002"/>
<polygon fill="#938ae3" stroke="#938ae3" points="596.673,-513.437 607.011,-509.782 600.287,-509.983 603.902,-506.528 603.902,-506.528 603.902,-506.528 600.287,-509.983 600.793,-503.275 596.673,-513.437 596.673,-513.437"/>
</g>
<!-- User -->
<g id="node8" class="node"><title>User</title>
<path fill="none" stroke="black" d="M581.5,-549.5C581.5,-549.5 870.5,-549.5 870.5,-549.5 876.5,-549.5 882.5,-555.5 882.5,-561.5 882.5,-561.5 882.5,-808.5 882.5,-808.5 882.5,-814.5 876.5,-820.5 870.5,-820.5 870.5,-820.5 581.5,-820.5 581.5,-820.5 575.5,-820.5 569.5,-814.5 569.5,-808.5 569.5,-808.5 569.5,-561.5 569.5,-561.5 569.5,-555.5 575.5,-549.5 581.5,-549.5"/>
<text text-anchor="middle" x="726" y="-805.3" font-family="Times,serif" font-size="14.00">User</text>
<polyline fill="none" stroke="black" points="569.5,-797.5 882.5,-797.5 "/>
<text text-anchor="start" x="577.5" y="-782.3" font-family="Times,serif" font-size="14.00">id :integer</text>
<text text-anchor="start" x="577.5" y="-767.3" font-family="Times,serif" font-size="14.00">email :character varying</text>
<text text-anchor="start" x="577.5" y="-752.3" font-family="Times,serif" font-size="14.00">encrypted_password :character varying</text>
<text text-anchor="start" x="577.5" y="-737.3" font-family="Times,serif" font-size="14.00">reset_password_token :character varying</text>
<text text-anchor="start" x="577.5" y="-722.3" font-family="Times,serif" font-size="14.00">reset_password_sent_at :timestamp without time zone</text>
<text text-anchor="start" x="577.5" y="-707.3" font-family="Times,serif" font-size="14.00">remember_created_at :timestamp without time zone</text>
<text text-anchor="start" x="577.5" y="-692.3" font-family="Times,serif" font-size="14.00">sign_in_count :integer</text>
<text text-anchor="start" x="577.5" y="-677.3" font-family="Times,serif" font-size="14.00">current_sign_in_at :timestamp without time zone</text>
<text text-anchor="start" x="577.5" y="-662.3" font-family="Times,serif" font-size="14.00">last_sign_in_at :timestamp without time zone</text>
<text text-anchor="start" x="577.5" y="-647.3" font-family="Times,serif" font-size="14.00">current_sign_in_ip :inet</text>
<text text-anchor="start" x="577.5" y="-632.3" font-family="Times,serif" font-size="14.00">last_sign_in_ip :inet</text>
<text text-anchor="start" x="577.5" y="-617.3" font-family="Times,serif" font-size="14.00">created_at :timestamp without time zone</text>
<text text-anchor="start" x="577.5" y="-602.3" font-family="Times,serif" font-size="14.00">updated_at :timestamp without time zone</text>
<text text-anchor="start" x="577.5" y="-587.3" font-family="Times,serif" font-size="14.00">name :character varying</text>
<text text-anchor="start" x="577.5" y="-572.3" font-family="Times,serif" font-size="14.00">phone :integer</text>
<text text-anchor="start" x="577.5" y="-557.3" font-family="Times,serif" font-size="14.00">role :integer</text>
</g>
<!-- User&#45;&gt;Publication -->
<g id="edge7" class="edge"><title>User&#45;&gt;Publication</title>
<path fill="none" stroke="#762eb7" d="M726,-541.137C726,-535.022 726,-528.9 726,-522.816"/>
<ellipse fill="none" stroke="#762eb7" cx="726" cy="-545.148" rx="4" ry="4"/>
<polygon fill="#762eb7" stroke="#762eb7" points="726,-522.619 730.5,-512.619 726,-517.619 726,-512.619 726,-512.619 726,-512.619 726,-517.619 721.5,-512.619 726,-522.619 726,-522.619"/>
</g>
<!-- Type -->
<g id="node9" class="node"><title>Type</title>
<path fill="none" stroke="black" d="M913,-639.5C913,-639.5 1133,-639.5 1133,-639.5 1139,-639.5 1145,-645.5 1145,-651.5 1145,-651.5 1145,-718.5 1145,-718.5 1145,-724.5 1139,-730.5 1133,-730.5 1133,-730.5 913,-730.5 913,-730.5 907,-730.5 901,-724.5 901,-718.5 901,-718.5 901,-651.5 901,-651.5 901,-645.5 907,-639.5 913,-639.5"/>
<text text-anchor="middle" x="1023" y="-715.3" font-family="Times,serif" font-size="14.00">Type</text>
<polyline fill="none" stroke="black" points="901,-707.5 1145,-707.5 "/>
<text text-anchor="start" x="909" y="-692.3" font-family="Times,serif" font-size="14.00">id :integer</text>
<text text-anchor="start" x="909" y="-677.3" font-family="Times,serif" font-size="14.00">name :character varying</text>
<text text-anchor="start" x="909" y="-662.3" font-family="Times,serif" font-size="14.00">created_at :timestamp without time zone</text>
<text text-anchor="start" x="909" y="-647.3" font-family="Times,serif" font-size="14.00">updated_at :timestamp without time zone</text>
</g>
<!-- Type&#45;&gt;Publication -->
<g id="edge8" class="edge"><title>Type&#45;&gt;Publication</title>
<path fill="none" stroke="#35fe27" d="M974.949,-633.383C950.406,-607.812 919.906,-576.463 892,-549 880.218,-537.405 867.859,-525.439 855.424,-513.53"/>
<ellipse fill="none" stroke="#35fe27" cx="977.964" cy="-636.529" rx="4.00002" ry="4.00002"/>
<polygon fill="#35fe27" stroke="#35fe27" points="855.327,-513.437 851.207,-503.275 851.713,-509.983 848.098,-506.528 848.098,-506.528 848.098,-506.528 851.713,-509.983 844.989,-509.782 855.327,-513.437 855.327,-513.437"/>
</g>
<!-- Category -->
<g id="node10" class="node"><title>Category</title>
<path fill="none" stroke="black" d="M1175,-639.5C1175,-639.5 1395,-639.5 1395,-639.5 1401,-639.5 1407,-645.5 1407,-651.5 1407,-651.5 1407,-718.5 1407,-718.5 1407,-724.5 1401,-730.5 1395,-730.5 1395,-730.5 1175,-730.5 1175,-730.5 1169,-730.5 1163,-724.5 1163,-718.5 1163,-718.5 1163,-651.5 1163,-651.5 1163,-645.5 1169,-639.5 1175,-639.5"/>
<text text-anchor="middle" x="1285" y="-715.3" font-family="Times,serif" font-size="14.00">Category</text>
<polyline fill="none" stroke="black" points="1163,-707.5 1407,-707.5 "/>
<text text-anchor="start" x="1171" y="-692.3" font-family="Times,serif" font-size="14.00">id :integer</text>
<text text-anchor="start" x="1171" y="-677.3" font-family="Times,serif" font-size="14.00">name :character varying</text>
<text text-anchor="start" x="1171" y="-662.3" font-family="Times,serif" font-size="14.00">created_at :timestamp without time zone</text>
<text text-anchor="start" x="1171" y="-647.3" font-family="Times,serif" font-size="14.00">updated_at :timestamp without time zone</text>
</g>
<!-- Category&#45;&gt;Publication -->
<g id="edge9" class="edge"><title>Category&#45;&gt;Publication</title>
<path fill="none" stroke="#9bbd49" d="M1245.45,-633.133C1221.51,-605.149 1188.91,-571.621 1154,-549 1062.84,-489.927 946.294,-449.336 857.845,-424.4"/>
<ellipse fill="none" stroke="#9bbd49" cx="1248.15" cy="-636.325" rx="4.00002" ry="4.00002"/>
<polygon fill="#9bbd49" stroke="#9bbd49" points="857.652,-424.346 849.228,-417.326 852.836,-423.004 848.019,-421.661 848.019,-421.661 848.019,-421.661 852.836,-423.004 846.811,-425.996 857.652,-424.346 857.652,-424.346"/>
</g>
</g>
</svg>
